<svg xmlns="http://www.w3.org/2000/svg" width="384" height="384" viewBox="0 0 384 384">
  <g id="Group_42" data-name="Group 42" transform="translate(4369 8461)">
    <g id="Group_26" data-name="Group 26" transform="translate(-4717 -8809)">
      <path id="Path_84" data-name="Path 84" d="M703.875,642.723H376.125a22.5,22.5,0,0,1-22.5-22.5V408.41a22.5,22.5,0,0,1,22.5-22.5h327.75a22.5,22.5,0,0,1,22.5,22.5V620.223a22.5,22.5,0,0,1-22.5,22.5Zm0,0" fill="#ff4d4f"/>
      <path id="Path_85" data-name="Path 85" d="M703.875,385.91h-22.5a22.5,22.5,0,0,1,22.5,22.5V620.223a22.5,22.5,0,0,1-22.5,22.5h22.5a22.5,22.5,0,0,0,22.5-22.5V408.41a22.5,22.5,0,0,0-22.5-22.5Zm0,0" fill="#f92e31"/>
      <path id="Path_86" data-name="Path 86" d="M376.125,605.973V411.41a3,3,0,0,1,3-3h321.75a3,3,0,0,1,3,3V605.973a3,3,0,0,1-3,3H379.125a3,3,0,0,1-3-3Zm0,0" fill="#ecf5ff"/>
      <path id="Path_87" data-name="Path 87" d="M376.125,605.973V411.41a3,3,0,0,1,3-3h321.75a3,3,0,0,1,3,3V605.973a3,3,0,0,1-3,3H379.125a3,3,0,0,1-3-3Zm0,0" fill="#ffe9e9"/>
      <path id="Path_88" data-name="Path 88" d="M700.875,408.41h-22.5a3,3,0,0,1,3,3V605.973a3,3,0,0,1-3,3h22.5a3,3,0,0,0,3-3V411.41a3,3,0,0,0-3-3Zm0,0" fill="#ecbbbc"/>
      <path id="Path_89" data-name="Path 89" d="M577.156,726.375H502.844l11.25-83.652h51.812Zm0,0" fill="#ff4d4f"/>
      <path id="Path_90" data-name="Path 90" d="M565.906,642.723h-22.5l11.25,83.652h22.5Zm0,0" fill="#f92e31"/>
      <path id="Path_91" data-name="Path 91" d="M588.672,690.207l7.922,28.566a6,6,0,0,1-5.782,7.6H489.188a6,6,0,0,1-5.782-7.6l7.922-28.566a6,6,0,0,1,5.781-4.395h85.782a6,6,0,0,1,5.781,4.395Zm0,0" fill="#ff4d4f"/>
      <path id="Path_92" data-name="Path 92" d="M596.594,718.773l-7.922-28.566a6,6,0,0,0-5.781-4.395h-22.5a6,6,0,0,1,5.781,4.395l7.922,28.566a6,6,0,0,1-5.782,7.6h22.5a6,6,0,0,0,5.782-7.6Zm0,0" fill="#f92e31"/>
      <rect id="Rectangle_13" data-name="Rectangle 13" width="238.484" height="210.348" transform="translate(420.758 398.625)" fill="#ffe9e9"/>
      <rect id="Rectangle_14" data-name="Rectangle 14" width="22.5" height="210.348" transform="translate(636.742 398.625)" fill="#ecbbbc"/>
      <path id="Path_95" data-name="Path 95" d="M638.992,353.625H429.758a9,9,0,0,0-9,9v36H659.242l-11.25-36a9,9,0,0,0-9-9Zm0,0" fill="#ff4d4f"/>
      <path id="Path_96" data-name="Path 96" d="M650.242,353.625h-22.5a9,9,0,0,1,9,9v36h22.5v-36a9,9,0,0,0-9-9Zm0,0" fill="#f92e31"/>
      <path id="Path_97" data-name="Path 97" d="M471.383,376.125a5.625,5.625,0,1,0-5.625,5.625,5.627,5.627,0,0,0,5.625-5.625ZM443.258,370.5a5.625,5.625,0,1,0,5.625,5.625,5.626,5.626,0,0,0-5.625-5.625ZM726.375,556.531A5.626,5.626,0,0,0,732,550.906v-142.5a28.157,28.157,0,0,0-28.125-28.125H664.867V362.625A14.643,14.643,0,0,0,650.242,348H429.758a14.643,14.643,0,0,0-14.625,14.625v17.656H376.125A28.157,28.157,0,0,0,348,408.406V620.219a28.157,28.157,0,0,0,28.125,28.125H507.664l-4.285,31.844h-6.27a11.654,11.654,0,0,0-11.2,8.515l-7.926,28.567a11.627,11.627,0,0,0,11.2,14.73H590.812a11.628,11.628,0,0,0,11.2-14.73L594.09,688.7a11.658,11.658,0,0,0-11.2-8.519h-6.27l-4.285-31.84H703.875A28.157,28.157,0,0,0,732,620.219V577.152a5.625,5.625,0,0,0-11.25,0v43.067a16.9,16.9,0,0,1-16.875,16.875H376.125a16.9,16.9,0,0,1-16.875-16.875V408.406a16.9,16.9,0,0,1,16.875-16.875h39.008v11.25H379.125a8.635,8.635,0,0,0-8.625,8.625V605.969a8.635,8.635,0,0,0,8.625,8.625h321.75a8.635,8.635,0,0,0,8.625-8.625V411.406a8.635,8.635,0,0,0-8.625-8.625H664.867v-11.25h39.008a16.9,16.9,0,0,1,16.875,16.875v142.5a5.626,5.626,0,0,0,5.625,5.625ZM582.891,691.438a.367.367,0,0,1,.359.273l7.922,28.562a.418.418,0,0,1-.36.477H489.188a.418.418,0,0,1-.36-.477l7.922-28.562a.371.371,0,0,1,.359-.277h85.782Zm-63.875-43.094h41.972l4.282,31.844H514.73Zm-103.883-45H381.75V414.031h33.383ZM653.617,393H488.977a5.625,5.625,0,1,0,0,11.25h164.64V603.344H426.383V404.25h36.344a5.625,5.625,0,0,0,0-11.25H426.383V362.625a3.381,3.381,0,0,1,3.375-3.375H650.242a3.381,3.381,0,0,1,3.375,3.375Zm44.633,21.031V603.344H664.867V414.031ZM488.258,370.5a5.625,5.625,0,1,0,5.625,5.625,5.626,5.626,0,0,0-5.625-5.625Z"/>
    </g>
    <g id="Group_35" data-name="Group 35" transform="translate(-4688 -8824.236)">
      <path id="Path_166" data-name="Path 166" d="M505.389,464.2a13.9,13.9,0,0,1,1.835-6.912,12.21,12.21,0,1,0,1,15.336,13.934,13.934,0,0,1-2.833-8.424Zm0,0" transform="translate(-8.616 -2.271)" fill="#ff4d4f"/>
      <path id="Path_167" data-name="Path 167" d="M499.031,513.907a18.6,18.6,0,0,1,8.308-15.5A16.22,16.22,0,0,0,480.281,510.5v4.341h18.75Zm0,0" transform="translate(-6.875 -14.622)" fill="#ff4d4f"/>
      <path id="Path_168" data-name="Path 168" d="M559.783,453.344a12.169,12.169,0,0,0-8.961,3.935,13.937,13.937,0,0,1-1,15.336,12.21,12.21,0,1,0,9.959-19.271Zm0,0" transform="translate(-27.872 -2.27)" fill="#ff4d4f"/>
      <path id="Path_169" data-name="Path 169" d="M559.411,494.254a16.163,16.163,0,0,0-10.817,4.154,18.609,18.609,0,0,1,8.306,15.5v.93h18.75V510.5a16.239,16.239,0,0,0-16.239-16.241Zm0,0" transform="translate(-27.501 -14.622)" fill="#ff4d4f"/>
      <path id="Path_170" data-name="Path 170" d="M541.545,460.615a14,14,0,1,1-16.063-11.584,14,14,0,0,1,16.063,11.584Zm0,0" transform="translate(-16.97 -0.913)" fill="#ff4d4f"/>
      <path id="Path_171" data-name="Path 171" d="M525.763,495.731a18.623,18.623,0,0,0-18.622,18.622v4.977h37.243v-4.977a18.621,18.621,0,0,0-18.621-18.622Zm0,0" transform="translate(-14.985 -15.068)" fill="#ff4d4f"/>
      <path id="Path_176" data-name="Path 176" d="M479.376,502.309h16.659v1.955a2.093,2.093,0,0,0,2.094,2.094h37.243a2.091,2.091,0,0,0,2.094-2.094v-1.955h16.656a2.093,2.093,0,0,0,2.094-2.094v-4.341a18.343,18.343,0,0,0-17.746-18.306,14.3,14.3,0,1,0-9.162-25.7,16.061,16.061,0,0,0-25.109,0,14.292,14.292,0,1,0-9.165,25.7,18.348,18.348,0,0,0-17.749,18.308v4.339a2.091,2.091,0,0,0,2.091,2.1Zm53.9-.142H500.221v-2.882a16.527,16.527,0,1,1,33.054,0ZM505.584,473.5a16.036,16.036,0,0,0,22.331,0,14.205,14.205,0,0,0,9.427,4.068,18.157,18.157,0,0,0-10.447,3.676,20.585,20.585,0,0,0-20.285,0,18.172,18.172,0,0,0-10.449-3.676,14.207,14.207,0,0,0,9.424-4.066Zm46.441,22.374v2.247H537.407a20.642,20.642,0,0,0-6.9-14.28,13.994,13.994,0,0,1,7.379-2.114,14.161,14.161,0,0,1,14.142,14.147Zm-14.144-42.7a10.119,10.119,0,0,1,0,20.239,10,10,0,0,1-7.336-3.229,15.964,15.964,0,0,0,.952-14.692,9.973,9.973,0,0,1,6.383-2.318Zm-21.133-3.157a11.912,11.912,0,1,1-11.911,11.911,11.926,11.926,0,0,1,11.911-11.911ZM485.5,463.29a10.134,10.134,0,0,1,10.122-10.119A9.965,9.965,0,0,1,502,455.488a15.974,15.974,0,0,0,.954,14.692,10,10,0,0,1-7.338,3.229A10.134,10.134,0,0,1,485.5,463.29Zm-4.025,32.583a14.161,14.161,0,0,1,14.144-14.147,14,14,0,0,1,7.379,2.114,20.646,20.646,0,0,0-6.9,14.28H481.471Zm0,0" transform="translate(-5.97 0)"/>
      <path id="Path_178" data-name="Path 178" d="M473.645,565.2H462.575a2.863,2.863,0,0,0-2.864,2.863v11.074A2.863,2.863,0,0,0,462.575,582h11.071a2.863,2.863,0,0,0,2.864-2.863V568.059a2.863,2.863,0,0,0-2.864-2.863Zm0,0" transform="translate(-0.664 -36.041)"/>
      <path id="Path_179" data-name="Path 179" d="M473.645,599.832H462.575a2.863,2.863,0,0,0-2.864,2.864v11.071a2.863,2.863,0,0,0,2.864,2.864h11.071a2.863,2.863,0,0,0,2.864-2.864V602.7a2.863,2.863,0,0,0-2.864-2.864Zm0,0" transform="translate(-0.664 -46.499)"/>
      <path id="Path_180" data-name="Path 180" d="M473.645,634.465H462.575a2.863,2.863,0,0,0-2.864,2.864V648.4a2.863,2.863,0,0,0,2.864,2.864h11.071a2.863,2.863,0,0,0,2.864-2.864V637.329a2.863,2.863,0,0,0-2.864-2.864Zm0,0" transform="translate(-0.664 -56.955)"/>
      <path id="Path_181" data-name="Path 181" d="M500.981,585.356a2.093,2.093,0,0,0,2.094,2.094h72.558a2.094,2.094,0,1,0,0-4.188H503.075a2.094,2.094,0,0,0-2.094,2.094Zm0,0" transform="translate(-13.125 -41.496)"/>
      <path id="Path_182" data-name="Path 182" d="M575.636,617.9H503.075a2.094,2.094,0,0,0,0,4.188h72.558a2.094,2.094,0,0,0,0-4.188Zm0,0" transform="translate(-13.125 -51.954)"/>
      <path id="Path_183" data-name="Path 183" d="M575.636,652.532H503.075a2.094,2.094,0,0,0,0,4.188h72.558a2.094,2.094,0,0,0,0-4.188Zm0,0" transform="translate(-13.125 -62.41)"/>
      <path id="Path_184" data-name="Path 184" d="M467.285,574.564a3.127,3.127,0,0,1-2.277-.979l-6.632-6.984a3.14,3.14,0,1,1,4.554-4.325l4.229,4.453,12.047-14.1a3.142,3.142,0,0,1,4.78,4.08l-14.311,16.754a3.137,3.137,0,0,1-2.307,1.1c-.03,0-.057,0-.084,0Zm0,0" transform="translate(0 -31.915)" fill="#ff4d4f"/>
      <path id="Path_185" data-name="Path 185" d="M467.285,610.565a3.127,3.127,0,0,1-2.277-.979l-6.632-6.984a3.14,3.14,0,1,1,4.554-4.325l4.229,4.453,12.047-14.1a3.142,3.142,0,0,1,4.78,4.08l-14.311,16.754a3.137,3.137,0,0,1-2.307,1.1c-.03,0-.057,0-.084,0Zm0,0" transform="translate(0 -42.784)" fill="#ff4d4f"/>
      <path id="Path_186" data-name="Path 186" d="M467.285,643.564a3.127,3.127,0,0,1-2.277-.979l-6.632-6.984a3.14,3.14,0,1,1,4.554-4.324l4.229,4.453,12.047-14.1a3.142,3.142,0,0,1,4.78,4.08l-14.311,16.754a3.137,3.137,0,0,1-2.307,1.1c-.03,0-.057,0-.084,0Zm0,0" transform="translate(0 -52.747)" fill="#ff4d4f"/>
    </g>
  </g>
</svg>
