<svg xmlns="http://www.w3.org/2000/svg" width="384" height="384" viewBox="0 0 384 384">
  <g id="Group_45" data-name="Group 45" transform="translate(4358 6643)">
    <g id="Group_39" data-name="Group 39" transform="translate(-4706 -6991)">
      <path id="Path_212" data-name="Path 212" d="M703.875,642.723H376.125a22.5,22.5,0,0,1-22.5-22.5V408.41a22.5,22.5,0,0,1,22.5-22.5h327.75a22.5,22.5,0,0,1,22.5,22.5V620.223a22.5,22.5,0,0,1-22.5,22.5Zm0,0" fill="#ff4d4f"/>
      <path id="Path_213" data-name="Path 213" d="M703.875,385.91h-22.5a22.5,22.5,0,0,1,22.5,22.5V620.223a22.5,22.5,0,0,1-22.5,22.5h22.5a22.5,22.5,0,0,0,22.5-22.5V408.41a22.5,22.5,0,0,0-22.5-22.5Zm0,0" fill="#f92e31"/>
      <path id="Path_214" data-name="Path 214" d="M376.125,605.973V411.41a3,3,0,0,1,3-3h321.75a3,3,0,0,1,3,3V605.973a3,3,0,0,1-3,3H379.125a3,3,0,0,1-3-3Zm0,0" fill="#ecf5ff"/>
      <path id="Path_215" data-name="Path 215" d="M376.125,605.973V411.41a3,3,0,0,1,3-3h321.75a3,3,0,0,1,3,3V605.973a3,3,0,0,1-3,3H379.125a3,3,0,0,1-3-3Zm0,0" fill="#ffe9e9"/>
      <path id="Path_216" data-name="Path 216" d="M700.875,408.41h-22.5a3,3,0,0,1,3,3V605.973a3,3,0,0,1-3,3h22.5a3,3,0,0,0,3-3V411.41a3,3,0,0,0-3-3Zm0,0" fill="#ecbbbc"/>
      <path id="Path_217" data-name="Path 217" d="M577.156,726.375H502.844l11.25-83.652h51.812Zm0,0" fill="#ff4d4f"/>
      <path id="Path_218" data-name="Path 218" d="M565.906,642.723h-22.5l11.25,83.652h22.5Zm0,0" fill="#f92e31"/>
      <path id="Path_219" data-name="Path 219" d="M588.672,690.207l7.922,28.566a6,6,0,0,1-5.782,7.6H489.188a6,6,0,0,1-5.782-7.6l7.922-28.566a6,6,0,0,1,5.781-4.395h85.782a6,6,0,0,1,5.781,4.395Zm0,0" fill="#ff4d4f"/>
      <path id="Path_220" data-name="Path 220" d="M596.594,718.773l-7.922-28.566a6,6,0,0,0-5.781-4.395h-22.5a6,6,0,0,1,5.781,4.395l7.922,28.566a6,6,0,0,1-5.782,7.6h22.5a6,6,0,0,0,5.782-7.6Zm0,0" fill="#f92e31"/>
      <rect id="Rectangle_22" data-name="Rectangle 22" width="238.484" height="210.348" transform="translate(420.758 398.625)" fill="#ffe9e9"/>
      <rect id="Rectangle_23" data-name="Rectangle 23" width="22.5" height="210.348" transform="translate(636.742 398.625)" fill="#ecbbbc"/>
      <path id="Path_221" data-name="Path 221" d="M638.992,353.625H429.758a9,9,0,0,0-9,9v36H659.242l-11.25-36a9,9,0,0,0-9-9Zm0,0" fill="#ff4d4f"/>
      <path id="Path_222" data-name="Path 222" d="M650.242,353.625h-22.5a9,9,0,0,1,9,9v36h22.5v-36a9,9,0,0,0-9-9Zm0,0" fill="#f92e31"/>
      <path id="Path_223" data-name="Path 223" d="M587.316,475.672A47.317,47.317,0,1,1,540,428.031a47.477,47.477,0,0,1,47.316,47.641Zm0,0" fill="#dd8793"/>
      <path id="Path_224" data-name="Path 224" d="M540,428.031a47.076,47.076,0,0,0-11.25,1.367,47.721,47.721,0,0,1,0,92.551A47.6,47.6,0,1,0,540,428.031Zm0,0" fill="#d5707e"/>
      <path id="Path_225" data-name="Path 225" d="M537.152,454.93l18.61,18.734a2.847,2.847,0,0,1,0,4.016l-18.61,18.738a2.848,2.848,0,0,1-4.867-2.008V456.938a2.847,2.847,0,0,1,4.867-2.008Zm0,0" fill="#fff"/>
      <path id="Path_226" data-name="Path 226" d="M540,528.938a53.267,53.267,0,0,0,0-106.532,52.315,52.315,0,0,0-21.684,4.66,5.624,5.624,0,1,0,4.633,10.25A41.171,41.171,0,0,1,540,433.656a41.883,41.883,0,1,1-34.559,18.5,5.624,5.624,0,1,0-9.339-6.269A53.336,53.336,0,0,0,540,528.938Zm-96.742,29.41H636.742a5.625,5.625,0,0,0,0-11.25H443.258a5.625,5.625,0,1,0,0,11.25ZM703.875,380.281H664.867V362.625A14.643,14.643,0,0,0,650.242,348H429.758a14.643,14.643,0,0,0-14.625,14.625v17.656H376.125A28.157,28.157,0,0,0,348,408.406V539.867a5.625,5.625,0,0,0,11.25,0V408.406a16.9,16.9,0,0,1,16.875-16.875h39.008v11.25H379.125a8.635,8.635,0,0,0-8.625,8.625V605.969a8.635,8.635,0,0,0,8.625,8.625h321.75a8.635,8.635,0,0,0,8.625-8.625V411.406a8.635,8.635,0,0,0-8.625-8.625H664.867v-11.25h39.008a16.9,16.9,0,0,1,16.875,16.875V620.219a16.9,16.9,0,0,1-16.875,16.875H376.125a16.9,16.9,0,0,1-16.875-16.875v-54.1a5.625,5.625,0,0,0-11.25,0v54.1a28.157,28.157,0,0,0,28.125,28.125H507.664l-4.285,31.844h-6.27a11.658,11.658,0,0,0-11.2,8.515l-7.922,28.567a11.623,11.623,0,0,0,11.2,14.73H590.812a11.628,11.628,0,0,0,11.2-14.73l-7.926-28.563a11.657,11.657,0,0,0-11.2-8.519h-6.27l-4.285-31.844H703.875A28.157,28.157,0,0,0,732,620.219V408.406a28.157,28.157,0,0,0-28.125-28.125ZM415.133,603.344H381.75V414.031h33.383Zm238.484,0H426.383V404.25H653.617Zm0-210.344H426.383V362.625a3.381,3.381,0,0,1,3.375-3.375H650.242a3.381,3.381,0,0,1,3.375,3.375Zm44.633,21.031V603.344H664.867V414.031ZM519.016,648.344h41.972l4.282,31.844H514.73Zm63.875,43.094a.367.367,0,0,1,.359.273l7.922,28.562a.418.418,0,0,1-.36.477H489.188a.413.413,0,0,1-.36-.477l7.922-28.562a.378.378,0,0,1,.359-.277h85.782ZM541.145,500.383l18.609-18.738a8.5,8.5,0,0,0,0-11.942l-18.609-18.738a8.473,8.473,0,0,0-14.485,5.973V494.41a8.475,8.475,0,0,0,14.485,5.973Zm-3.235-36.711,11.918,12-11.918,12ZM488.258,370.5a5.625,5.625,0,1,0,5.625,5.625,5.626,5.626,0,0,0-5.625-5.625Zm-22.5,0a5.625,5.625,0,1,0,5.625,5.625,5.626,5.626,0,0,0-5.625-5.625Zm-22.5,210.348H636.742a5.625,5.625,0,0,0,0-11.25H443.258a5.625,5.625,0,1,0,0,11.25Zm0-210.348a5.625,5.625,0,1,0,5.625,5.625,5.626,5.626,0,0,0-5.625-5.625Zm0,0"/>
    </g>
  </g>
</svg>
