<svg xmlns="http://www.w3.org/2000/svg" width="384" height="384" viewBox="0 0 384 384">
  <g id="Group_44" data-name="Group 44" transform="translate(4347 7239)">
    <g id="Group_31" data-name="Group 31" transform="translate(-4695 -7587)">
      <path id="Path_129" data-name="Path 129" d="M703.875,642.723H376.125a22.5,22.5,0,0,1-22.5-22.5V408.41a22.5,22.5,0,0,1,22.5-22.5h327.75a22.5,22.5,0,0,1,22.5,22.5V620.223a22.5,22.5,0,0,1-22.5,22.5Zm0,0" fill="#ff4d4f"/>
      <path id="Path_130" data-name="Path 130" d="M703.875,385.91h-22.5a22.5,22.5,0,0,1,22.5,22.5V620.223a22.5,22.5,0,0,1-22.5,22.5h22.5a22.5,22.5,0,0,0,22.5-22.5V408.41a22.5,22.5,0,0,0-22.5-22.5Zm0,0" fill="#f92e31"/>
      <path id="Path_131" data-name="Path 131" d="M376.125,605.973V411.41a3,3,0,0,1,3-3h321.75a3,3,0,0,1,3,3V605.973a3,3,0,0,1-3,3H379.125a3,3,0,0,1-3-3Zm0,0" fill="#ecf5ff"/>
      <path id="Path_132" data-name="Path 132" d="M376.125,605.973V411.41a3,3,0,0,1,3-3h321.75a3,3,0,0,1,3,3V605.973a3,3,0,0,1-3,3H379.125a3,3,0,0,1-3-3Zm0,0" fill="#ffe9e9"/>
      <path id="Path_133" data-name="Path 133" d="M700.875,408.41h-22.5a3,3,0,0,1,3,3V605.973a3,3,0,0,1-3,3h22.5a3,3,0,0,0,3-3V411.41a3,3,0,0,0-3-3Zm0,0" fill="#ecbbbc"/>
      <path id="Path_134" data-name="Path 134" d="M577.156,726.375H502.844l11.25-83.652h51.812Zm0,0" fill="#ff4d4f"/>
      <path id="Path_135" data-name="Path 135" d="M565.906,642.723h-22.5l11.25,83.652h22.5Zm0,0" fill="#f92e31"/>
      <path id="Path_136" data-name="Path 136" d="M588.672,690.207l7.922,28.566a6,6,0,0,1-5.782,7.6H489.188a6,6,0,0,1-5.782-7.6l7.922-28.566a6,6,0,0,1,5.781-4.395h85.782a6,6,0,0,1,5.781,4.395Zm0,0" fill="#ff4d4f"/>
      <path id="Path_137" data-name="Path 137" d="M596.594,718.773l-7.922-28.566a6,6,0,0,0-5.781-4.395h-22.5a6,6,0,0,1,5.781,4.395l7.922,28.566a6,6,0,0,1-5.782,7.6h22.5a6,6,0,0,0,5.782-7.6Zm0,0" fill="#f92e31"/>
      <rect id="Rectangle_18" data-name="Rectangle 18" width="238.484" height="210.348" transform="translate(420.758 398.625)" fill="#ffe9e9"/>
      <rect id="Rectangle_19" data-name="Rectangle 19" width="22.5" height="210.348" transform="translate(636.742 398.625)" fill="#ecbbbc"/>
      <path id="Path_146" data-name="Path 146" d="M631.492,447.863H448.508a5.251,5.251,0,0,1-5.25-5.25V426.375a5.251,5.251,0,0,1,5.25-5.25H631.492a5.251,5.251,0,0,1,5.25,5.25v16.238a5.251,5.251,0,0,1-5.25,5.25Zm0,0" fill="#ecbbbc"/>
      <path id="Path_147" data-name="Path 147" d="M638.992,353.625H429.758a9,9,0,0,0-9,9v36H659.242l-11.25-36a9,9,0,0,0-9-9Zm0,0" fill="#ff4d4f"/>
      <path id="Path_148" data-name="Path 148" d="M650.242,353.625h-22.5a9,9,0,0,1,9,9v36h22.5v-36a9,9,0,0,0-9-9Zm0,0" fill="#f92e31"/>
      <path id="Path_149" data-name="Path 149" d="M443.258,370.5a5.625,5.625,0,1,0,5.625,5.625,5.626,5.626,0,0,0-5.625-5.625Zm45,0a5.625,5.625,0,1,0,5.625,5.625,5.626,5.626,0,0,0-5.625-5.625ZM726.375,567.59A5.627,5.627,0,0,0,732,561.965V408.406a28.157,28.157,0,0,0-28.125-28.125H664.867V362.625A14.643,14.643,0,0,0,650.242,348H429.758a14.643,14.643,0,0,0-14.625,14.625v17.656H376.125A28.157,28.157,0,0,0,348,408.406V620.219a28.157,28.157,0,0,0,28.125,28.125H507.664l-4.285,31.844h-6.27a11.654,11.654,0,0,0-11.2,8.515l-7.926,28.567a11.627,11.627,0,0,0,11.2,14.73H590.812a11.628,11.628,0,0,0,11.2-14.73L594.09,688.7a11.654,11.654,0,0,0-11.2-8.515h-6.27l-4.285-31.844H703.875A28.157,28.157,0,0,0,732,620.219v-32a5.625,5.625,0,0,0-11.25,0v32a16.9,16.9,0,0,1-16.875,16.875H376.125a16.9,16.9,0,0,1-16.875-16.875V408.406a16.9,16.9,0,0,1,16.875-16.875h39.008v11.25H379.125a8.635,8.635,0,0,0-8.625,8.625V605.969a8.635,8.635,0,0,0,8.625,8.625h321.75a8.635,8.635,0,0,0,8.625-8.625V411.406a8.635,8.635,0,0,0-8.625-8.625H664.867v-11.25h39.008a16.9,16.9,0,0,1,16.875,16.875V561.965a5.627,5.627,0,0,0,5.625,5.625ZM582.891,691.438a.367.367,0,0,1,.359.273l7.922,28.562a.418.418,0,0,1-.36.477H489.188a.415.415,0,0,1-.36-.477l7.922-28.562a.367.367,0,0,1,.359-.273Zm-63.875-43.094h41.972l4.282,31.844H514.73Zm-103.883-45H381.75V414.031h33.383Zm238.484,0H426.383V404.25H653.617Zm0-210.344H426.383V362.625a3.381,3.381,0,0,1,3.375-3.375H650.242a3.381,3.381,0,0,1,3.375,3.375Zm44.633,21.031V603.344H664.867V414.031ZM465.758,370.5a5.625,5.625,0,1,0,5.625,5.625,5.626,5.626,0,0,0-5.625-5.625Zm-17.25,82.988H631.492a10.888,10.888,0,0,0,10.875-10.875V426.375A10.888,10.888,0,0,0,631.492,415.5H510.758a5.625,5.625,0,1,0,0,11.25H631.117v15.488H448.883V426.75h35.625a5.625,5.625,0,0,0,0-11.25h-36a10.888,10.888,0,0,0-10.875,10.875v16.238a10.888,10.888,0,0,0,10.875,10.875Z"/>
    </g>
    <path id="Path_211" data-name="Path 211" d="M532.73,554.77a7.588,7.588,0,0,0,7.582-8.028,40.4,40.4,0,0,0-37.894-37.894,7.582,7.582,0,0,0-8.031,7.578V547.18a7.6,7.6,0,0,0,7.59,7.59Zm-27.093-34.2a29.182,29.182,0,0,1,22.949,22.953H505.637Zm63.425,10.313h64.626a5.625,5.625,0,0,0,0-11.25H569.062a5.625,5.625,0,0,0,0,11.25Zm0,67.5h64.626a5.625,5.625,0,0,0,0-11.25H569.062a5.625,5.625,0,0,0,0,11.25Zm0-33.75h64.626a5.625,5.625,0,0,0,0-11.25H569.062a5.625,5.625,0,0,0,0,11.25Zm-85.48-34.074a7.623,7.623,0,0,0-5.644-2.051,40.661,40.661,0,0,0-28.016,13.867,40.02,40.02,0,0,0-9.824,29.6,40.659,40.659,0,0,0,37.09,37.086,40.161,40.161,0,0,0,29.593-9.821,40.644,40.644,0,0,0,13.867-28.015,7.587,7.587,0,0,0-7.582-8.039H485.973V536.09a7.626,7.626,0,0,0-2.391-5.531Zm25.328,43.875a29.511,29.511,0,0,1-9.515,16.32,28.833,28.833,0,0,1-21.333,7.086A29.318,29.318,0,0,1,451.316,571.1a28.84,28.84,0,0,1,7.09-21.336,29.5,29.5,0,0,1,16.317-9.516v26.6a7.6,7.6,0,0,0,7.593,7.59Zm0,0" transform="translate(-4695 -7620)"/>
  </g>
</svg>
