<svg xmlns="http://www.w3.org/2000/svg" xmlns:xlink="http://www.w3.org/1999/xlink" width="384" height="384" viewBox="0 0 384 384">
  <defs>
    <clipPath id="clip-path">
      <rect id="Rectangle_20" data-name="Rectangle 20" width="157" height="156" fill="none"/>
    </clipPath>
  </defs>
  <g id="Group_46" data-name="Group 46" transform="translate(4346 6075)">
    <g id="Group_40" data-name="Group 40" transform="translate(-4694 -6423)">
      <path id="Path_212" data-name="Path 212" d="M703.875,642.723H376.125a22.5,22.5,0,0,1-22.5-22.5V408.41a22.5,22.5,0,0,1,22.5-22.5h327.75a22.5,22.5,0,0,1,22.5,22.5V620.223a22.5,22.5,0,0,1-22.5,22.5Zm0,0" fill="#ff4d4f"/>
      <path id="Path_213" data-name="Path 213" d="M703.875,385.91h-22.5a22.5,22.5,0,0,1,22.5,22.5V620.223a22.5,22.5,0,0,1-22.5,22.5h22.5a22.5,22.5,0,0,0,22.5-22.5V408.41a22.5,22.5,0,0,0-22.5-22.5Zm0,0" fill="#f92e31"/>
      <path id="Path_214" data-name="Path 214" d="M376.125,605.973V411.41a3,3,0,0,1,3-3h321.75a3,3,0,0,1,3,3V605.973a3,3,0,0,1-3,3H379.125a3,3,0,0,1-3-3Zm0,0" fill="#ecf5ff"/>
      <path id="Path_215" data-name="Path 215" d="M376.125,605.973V411.41a3,3,0,0,1,3-3h321.75a3,3,0,0,1,3,3V605.973a3,3,0,0,1-3,3H379.125a3,3,0,0,1-3-3Zm0,0" fill="#ffe9e9"/>
      <path id="Path_216" data-name="Path 216" d="M700.875,408.41h-22.5a3,3,0,0,1,3,3V605.973a3,3,0,0,1-3,3h22.5a3,3,0,0,0,3-3V411.41a3,3,0,0,0-3-3Zm0,0" fill="#ecbbbc"/>
      <path id="Path_217" data-name="Path 217" d="M577.156,726.375H502.844l11.25-83.652h51.812Zm0,0" fill="#ff4d4f"/>
      <path id="Path_218" data-name="Path 218" d="M565.906,642.723h-22.5l11.25,83.652h22.5Zm0,0" fill="#f92e31"/>
      <path id="Path_219" data-name="Path 219" d="M588.672,690.207l7.922,28.566a6,6,0,0,1-5.782,7.6H489.188a6,6,0,0,1-5.782-7.6l7.922-28.566a6,6,0,0,1,5.781-4.395h85.782a6,6,0,0,1,5.781,4.395Zm0,0" fill="#ff4d4f"/>
      <path id="Path_220" data-name="Path 220" d="M596.594,718.773l-7.922-28.566a6,6,0,0,0-5.781-4.395h-22.5a6,6,0,0,1,5.781,4.395l7.922,28.566a6,6,0,0,1-5.782,7.6h22.5a6,6,0,0,0,5.782-7.6Zm0,0" fill="#f92e31"/>
      <rect id="Rectangle_22" data-name="Rectangle 22" width="238.484" height="210.348" transform="translate(420.758 398.625)" fill="#ffe9e9"/>
      <rect id="Rectangle_23" data-name="Rectangle 23" width="22.5" height="210.348" transform="translate(636.742 398.625)" fill="#ecbbbc"/>
      <path id="Path_221" data-name="Path 221" d="M638.992,353.625H429.758a9,9,0,0,0-9,9v36H659.242l-11.25-36a9,9,0,0,0-9-9Zm0,0" fill="#ff4d4f"/>
      <path id="Path_222" data-name="Path 222" d="M650.242,353.625h-22.5a9,9,0,0,1,9,9v36h22.5v-36a9,9,0,0,0-9-9Zm0,0" fill="#f92e31"/>
      <path id="Path_226" data-name="Path 226" d="M703.875,380.281H664.867V362.625A14.643,14.643,0,0,0,650.242,348H429.758a14.643,14.643,0,0,0-14.625,14.625v17.656H376.125A28.157,28.157,0,0,0,348,408.406V539.867a5.625,5.625,0,0,0,11.25,0V408.406a16.9,16.9,0,0,1,16.875-16.875h39.008v11.25H379.125a8.635,8.635,0,0,0-8.625,8.625V605.969a8.635,8.635,0,0,0,8.625,8.625h321.75a8.635,8.635,0,0,0,8.625-8.625V411.406a8.635,8.635,0,0,0-8.625-8.625H664.867v-11.25h39.008a16.9,16.9,0,0,1,16.875,16.875V620.219a16.9,16.9,0,0,1-16.875,16.875H376.125a16.9,16.9,0,0,1-16.875-16.875v-54.1a5.625,5.625,0,0,0-11.25,0v54.1a28.157,28.157,0,0,0,28.125,28.125H507.664l-4.285,31.844h-6.27a11.658,11.658,0,0,0-11.2,8.515l-7.922,28.567a11.623,11.623,0,0,0,11.2,14.73H590.812a11.628,11.628,0,0,0,11.2-14.73l-7.926-28.563a11.657,11.657,0,0,0-11.2-8.519h-6.27l-4.285-31.844H703.875A28.157,28.157,0,0,0,732,620.219V408.406a28.157,28.157,0,0,0-28.125-28.125ZM415.133,603.344H381.75V414.031h33.383Zm238.484,0H426.383V404.25H653.617Zm0-210.344H426.383V362.625a3.381,3.381,0,0,1,3.375-3.375H650.242a3.381,3.381,0,0,1,3.375,3.375Zm44.633,21.031V603.344H664.867V414.031ZM519.016,648.344h41.972l4.282,31.844H514.73Zm63.875,43.094a.367.367,0,0,1,.359.273l7.922,28.562a.418.418,0,0,1-.36.477H489.188a.413.413,0,0,1-.36-.477l7.922-28.562a.378.378,0,0,1,.359-.277h85.782ZM488.258,370.5a5.625,5.625,0,1,0,5.625,5.625,5.626,5.626,0,0,0-5.625-5.625Zm-22.5,0a5.625,5.625,0,1,0,5.625,5.625,5.626,5.626,0,0,0-5.625-5.625Zm-22.5,0a5.625,5.625,0,1,0,5.625,5.625,5.626,5.626,0,0,0-5.625-5.625Zm0,0"/>
    </g>
    <g id="Group_34" data-name="Group 34" transform="translate(-4592 -6359)">
      <path id="Path_150" data-name="Path 150" d="M503.618,375.825H490.561V370.55a10.445,10.445,0,1,0-20.89,0v5.275h-20.89V370.55a10.445,10.445,0,1,0-20.89,0v5.275H407V370.55a10.445,10.445,0,1,0-20.89,0v5.275H373.056A13.121,13.121,0,0,0,360,389.012v105.5A13.121,13.121,0,0,0,373.056,507.7h73.114a2.638,2.638,0,0,0,0-5.275H373.056a7.9,7.9,0,0,1-7.834-7.912v-81.76H511.451v44.836a2.611,2.611,0,1,0,5.223,0V389.012a13.121,13.121,0,0,0-13.056-13.187Zm-28.724-5.275a5.223,5.223,0,1,1,10.445,0v15.825a5.223,5.223,0,1,1-10.445,0Zm-41.78,0a5.223,5.223,0,1,1,10.445,0v15.825a5.223,5.223,0,1,1-10.445,0Zm-41.78,0a5.223,5.223,0,1,1,10.445,0v15.825a5.223,5.223,0,1,1-10.445,0Zm120.117,36.924H365.223V389.012a7.9,7.9,0,0,1,7.834-7.912h13.056v5.275a10.445,10.445,0,1,0,20.89,0V381.1h20.89v5.275a10.445,10.445,0,1,0,20.89,0V381.1h20.89v5.275a10.445,10.445,0,1,0,20.89,0V381.1h13.056a7.9,7.9,0,0,1,7.834,7.912Zm0,0" transform="translate(0 0)" stroke="#000" stroke-width="1"/>
      <path id="Path_151" data-name="Path 151" d="M496.944,514.236A4.235,4.235,0,0,0,492.708,510h-8.472A4.235,4.235,0,0,0,480,514.236v6.354a4.235,4.235,0,0,0,4.236,4.236h8.472a4.235,4.235,0,0,0,4.236-4.236Zm-12.708,6.354v-6.354h8.472v6.354Zm0,0" transform="translate(-66.258 -83.319)"/>
      <path id="Path_152" data-name="Path 152" d="M424.944,514.236A4.235,4.235,0,0,0,420.708,510h-8.472A4.235,4.235,0,0,0,408,514.236v6.354a4.235,4.235,0,0,0,4.236,4.236h8.472a4.235,4.235,0,0,0,4.236-4.236Zm-12.708,6.354v-6.354h8.472v6.354Zm0,0" transform="translate(-31.056 -83.319)"/>
      <path id="Path_153" data-name="Path 153" d="M636.708,524.826a4.235,4.235,0,0,0,4.236-4.236v-6.354A4.235,4.235,0,0,0,636.708,510h-8.472A4.235,4.235,0,0,0,624,514.236v6.354a4.235,4.235,0,0,0,4.236,4.236Zm-8.472-10.59h8.472v6.354h-8.472Zm0,0" transform="translate(-141.215 -83.319)"/>
      <path id="Path_154" data-name="Path 154" d="M496.944,568.236A4.235,4.235,0,0,0,492.708,564h-8.472A4.235,4.235,0,0,0,480,568.236v6.354a4.235,4.235,0,0,0,4.236,4.236h8.472a4.235,4.235,0,0,0,4.236-4.236Zm-12.708,6.354v-6.354h8.472v6.354Zm0,0" transform="translate(-66.258 -113.314)"/>
      <path id="Path_155" data-name="Path 155" d="M424.944,568.236A4.235,4.235,0,0,0,420.708,564h-8.472A4.235,4.235,0,0,0,408,568.236v6.354a4.235,4.235,0,0,0,4.236,4.236h8.472a4.235,4.235,0,0,0,4.236-4.236Zm-12.708,6.354v-6.354h8.472v6.354Zm0,0" transform="translate(-31.056 -113.314)"/>
      <path id="Path_156" data-name="Path 156" d="M492.708,618h-8.472A4.235,4.235,0,0,0,480,622.236v6.354a4.235,4.235,0,0,0,4.236,4.236h8.472a4.235,4.235,0,0,0,4.236-4.236v-6.354A4.235,4.235,0,0,0,492.708,618Zm-8.472,10.59v-6.354h8.472v6.354Zm0,0" transform="translate(-66.258 -143.309)"/>
      <path id="Path_157" data-name="Path 157" d="M556.236,524.826h8.472a4.235,4.235,0,0,0,4.236-4.236v-6.354A4.235,4.235,0,0,0,564.708,510h-8.472A4.235,4.235,0,0,0,552,514.236v6.354a4.235,4.235,0,0,0,4.236,4.236Zm0-10.59h8.472v6.354h-8.472Zm0,0" transform="translate(-106.013 -83.319)"/>
      <path id="Path_158" data-name="Path 158" d="M552,574.59a4.235,4.235,0,0,0,4.236,4.236,2.118,2.118,0,0,0,0-4.236v-6.354h8.472a2.118,2.118,0,1,0,0-4.236h-8.472A4.235,4.235,0,0,0,552,568.236Zm0,0" transform="translate(-106.356 -113.314)"/>
      <g id="Group_33" data-name="Group 33" transform="translate(360 360)">
        <g id="Group_32" data-name="Group 32" clip-path="url(#clip-path)">
          <path id="Path_159" data-name="Path 159" d="M423.669,618H413.223A5.214,5.214,0,0,0,408,623.206v7.809a5.214,5.214,0,0,0,5.223,5.206h10.446a5.214,5.214,0,0,0,5.223-5.206v-7.809A5.214,5.214,0,0,0,423.669,618Zm-10.446,13.016v-7.809h10.446v7.809Zm0,0" transform="translate(-387.108 -506.066)"/>
          <path id="Path_160" data-name="Path 160" d="M597.949,564a33.824,33.824,0,1,0,33.95,33.841A33.952,33.952,0,0,0,597.949,564Zm0,62.475a28.621,28.621,0,1,1,28.727-28.634,28.73,28.73,0,0,1-28.727,28.634Zm0,0" transform="translate(-475.206 -475.494)" stroke="#000" stroke-width="1"/>
        </g>
      </g>
      <path id="Path_161" data-name="Path 161" d="M626.173,615.758,609.7,632.232l-7.488-7.489a2.118,2.118,0,0,0-2.995,2.995l8.985,8.987a2.117,2.117,0,0,0,2.995,0l17.972-17.972a2.118,2.118,0,0,0-2.995-2.995Zm0,0" transform="translate(-124.795 -136.003)"/>
    </g>
  </g>
</svg>
