<svg xmlns="http://www.w3.org/2000/svg" width="384" height="384" viewBox="0 0 384 384">
  <g id="Group_43" data-name="Group 43" transform="translate(4354 7862)">
    <g id="Group_38" data-name="Group 38" transform="translate(-4702 -8210)">
      <path id="Path_129" data-name="Path 129" d="M703.875,642.723H376.125a22.5,22.5,0,0,1-22.5-22.5V408.41a22.5,22.5,0,0,1,22.5-22.5h327.75a22.5,22.5,0,0,1,22.5,22.5V620.223a22.5,22.5,0,0,1-22.5,22.5Zm0,0" fill="#ff4d4f"/>
      <path id="Path_130" data-name="Path 130" d="M703.875,385.91h-22.5a22.5,22.5,0,0,1,22.5,22.5V620.223a22.5,22.5,0,0,1-22.5,22.5h22.5a22.5,22.5,0,0,0,22.5-22.5V408.41a22.5,22.5,0,0,0-22.5-22.5Zm0,0" fill="#f92e31"/>
      <path id="Path_131" data-name="Path 131" d="M376.125,605.973V411.41a3,3,0,0,1,3-3h321.75a3,3,0,0,1,3,3V605.973a3,3,0,0,1-3,3H379.125a3,3,0,0,1-3-3Zm0,0" fill="#ecf5ff"/>
      <path id="Path_132" data-name="Path 132" d="M376.125,605.973V411.41a3,3,0,0,1,3-3h321.75a3,3,0,0,1,3,3V605.973a3,3,0,0,1-3,3H379.125a3,3,0,0,1-3-3Zm0,0" fill="#ffe9e9"/>
      <path id="Path_133" data-name="Path 133" d="M700.875,408.41h-22.5a3,3,0,0,1,3,3V605.973a3,3,0,0,1-3,3h22.5a3,3,0,0,0,3-3V411.41a3,3,0,0,0-3-3Zm0,0" fill="#ecbbbc"/>
      <path id="Path_134" data-name="Path 134" d="M577.156,726.375H502.844l11.25-83.652h51.812Zm0,0" fill="#ff4d4f"/>
      <path id="Path_135" data-name="Path 135" d="M565.906,642.723h-22.5l11.25,83.652h22.5Zm0,0" fill="#f92e31"/>
      <path id="Path_136" data-name="Path 136" d="M588.672,690.207l7.922,28.566a6,6,0,0,1-5.782,7.6H489.188a6,6,0,0,1-5.782-7.6l7.922-28.566a6,6,0,0,1,5.781-4.395h85.782a6,6,0,0,1,5.781,4.395Zm0,0" fill="#ff4d4f"/>
      <path id="Path_137" data-name="Path 137" d="M596.594,718.773l-7.922-28.566a6,6,0,0,0-5.781-4.395h-22.5a6,6,0,0,1,5.781,4.395l7.922,28.566a6,6,0,0,1-5.782,7.6h22.5a6,6,0,0,0,5.782-7.6Zm0,0" fill="#f92e31"/>
      <rect id="Rectangle_18" data-name="Rectangle 18" width="238.484" height="210.348" transform="translate(420.758 398.625)" fill="#ffe9e9"/>
      <rect id="Rectangle_19" data-name="Rectangle 19" width="22.5" height="210.348" transform="translate(636.742 398.625)" fill="#ecbbbc"/>
      <path id="Path_138" data-name="Path 138" d="M518.672,518.094H494.543a5.252,5.252,0,0,1-5.25-5.25V488.715a5.249,5.249,0,0,1,5.25-5.25h24.129a5.246,5.246,0,0,1,5.25,5.25v24.129a5.249,5.249,0,0,1-5.25,5.25Zm0,0" fill="#bcd7fd"/>
      <path id="Path_139" data-name="Path 139" d="M518.672,575.223H494.543a5.252,5.252,0,0,1-5.25-5.25V545.844a5.249,5.249,0,0,1,5.25-5.25h24.129a5.246,5.246,0,0,1,5.25,5.25v24.129a5.249,5.249,0,0,1-5.25,5.25Zm0,0" fill="#bcd7fd"/>
      <path id="Path_140" data-name="Path 140" d="M631.492,518.094H607.363a5.252,5.252,0,0,1-5.25-5.25V488.715a5.249,5.249,0,0,1,5.25-5.25h24.129a5.248,5.248,0,0,1,5.25,5.25v24.129a5.251,5.251,0,0,1-5.25,5.25Zm0,0" fill="#bfe69f"/>
      <path id="Path_141" data-name="Path 141" d="M631.492,483.465H614.18a5.249,5.249,0,0,1,5.25,5.25v24.129a5.252,5.252,0,0,1-5.25,5.25h17.312a5.251,5.251,0,0,0,5.25-5.25V488.715a5.248,5.248,0,0,0-5.25-5.25Zm0,0" fill="#a4d9a6"/>
      <path id="Path_142" data-name="Path 142" d="M631.492,575.223H607.363a5.252,5.252,0,0,1-5.25-5.25V545.844a5.249,5.249,0,0,1,5.25-5.25h24.129a5.248,5.248,0,0,1,5.25,5.25v24.129a5.251,5.251,0,0,1-5.25,5.25Zm0,0" fill="#bcd7fd"/>
      <path id="Path_143" data-name="Path 143" d="M631.492,540.594H614.18a5.249,5.249,0,0,1,5.25,5.25v24.129a5.252,5.252,0,0,1-5.25,5.25h17.312a5.251,5.251,0,0,0,5.25-5.25V545.844a5.248,5.248,0,0,0-5.25-5.25Zm0,0" fill="#9bc6fd"/>
      <path id="Path_144" data-name="Path 144" d="M518.672,483.465H501.359a5.248,5.248,0,0,1,5.25,5.25v24.129a5.251,5.251,0,0,1-5.25,5.25h17.313a5.249,5.249,0,0,0,5.25-5.25V488.715a5.246,5.246,0,0,0-5.25-5.25Zm0,0" fill="#9bc6fd"/>
      <path id="Path_145" data-name="Path 145" d="M518.672,540.594H501.359a5.248,5.248,0,0,1,5.25,5.25v24.129a5.251,5.251,0,0,1-5.25,5.25h17.313a5.249,5.249,0,0,0,5.25-5.25V545.844a5.246,5.246,0,0,0-5.25-5.25Zm0,0" fill="#9bc6fd"/>
      <path id="Path_146" data-name="Path 146" d="M631.492,447.863H448.508a5.251,5.251,0,0,1-5.25-5.25V426.375a5.251,5.251,0,0,1,5.25-5.25H631.492a5.251,5.251,0,0,1,5.25,5.25v16.238a5.251,5.251,0,0,1-5.25,5.25Zm0,0" fill="#ecbbbc"/>
      <path id="Path_147" data-name="Path 147" d="M638.992,353.625H429.758a9,9,0,0,0-9,9v36H659.242l-11.25-36a9,9,0,0,0-9-9Zm0,0" fill="#ff4d4f"/>
      <path id="Path_148" data-name="Path 148" d="M650.242,353.625h-22.5a9,9,0,0,1,9,9v36h22.5v-36a9,9,0,0,0-9-9Zm0,0" fill="#f92e31"/>
      <path id="Path_149" data-name="Path 149" d="M468.965,554.98a13.583,13.583,0,0,0-11.973-20.011H446.934a5.621,5.621,0,0,0-5.625,5.625v34.629a5.672,5.672,0,0,0,5.625,5.625h.023s9.242-.043,11.789-.043a14.927,14.927,0,0,0,10.219-25.825Zm-16.406-8.761h4.433a2.341,2.341,0,0,1,0,4.683c-.734,0-4.433.012-4.433.012Zm6.187,23.336c-1.168,0-3.738.007-6.187.019v-7.41h6.187a3.7,3.7,0,0,1,0,7.391Zm172.746-34.586H607.363a10.888,10.888,0,0,0-10.875,10.875v24.129a10.888,10.888,0,0,0,10.875,10.875h24.129a10.888,10.888,0,0,0,10.875-10.875V545.844a10.888,10.888,0,0,0-10.875-10.875Zm-.375,34.629H607.738V546.219h23.379ZM443.258,370.5a5.625,5.625,0,1,0,5.625,5.625,5.626,5.626,0,0,0-5.625-5.625Zm45,0a5.625,5.625,0,1,0,5.625,5.625,5.626,5.626,0,0,0-5.625-5.625ZM726.375,567.59A5.627,5.627,0,0,0,732,561.965V408.406a28.157,28.157,0,0,0-28.125-28.125H664.867V362.625A14.643,14.643,0,0,0,650.242,348H429.758a14.643,14.643,0,0,0-14.625,14.625v17.656H376.125A28.157,28.157,0,0,0,348,408.406V620.219a28.157,28.157,0,0,0,28.125,28.125H507.664l-4.285,31.844h-6.27a11.654,11.654,0,0,0-11.2,8.515l-7.926,28.567a11.627,11.627,0,0,0,11.2,14.73H590.812a11.628,11.628,0,0,0,11.2-14.73L594.09,688.7a11.654,11.654,0,0,0-11.2-8.515h-6.27l-4.285-31.844H703.875A28.157,28.157,0,0,0,732,620.219v-32a5.625,5.625,0,0,0-11.25,0v32a16.9,16.9,0,0,1-16.875,16.875H376.125a16.9,16.9,0,0,1-16.875-16.875V408.406a16.9,16.9,0,0,1,16.875-16.875h39.008v11.25H379.125a8.635,8.635,0,0,0-8.625,8.625V605.969a8.635,8.635,0,0,0,8.625,8.625h321.75a8.635,8.635,0,0,0,8.625-8.625V411.406a8.635,8.635,0,0,0-8.625-8.625H664.867v-11.25h39.008a16.9,16.9,0,0,1,16.875,16.875V561.965a5.627,5.627,0,0,0,5.625,5.625ZM582.891,691.438a.367.367,0,0,1,.359.273l7.922,28.562a.418.418,0,0,1-.36.477H489.188a.415.415,0,0,1-.36-.477l7.922-28.562a.367.367,0,0,1,.359-.273Zm-63.875-43.094h41.972l4.282,31.844H514.73Zm-103.883-45H381.75V414.031h33.383Zm238.484,0H426.383V404.25H653.617Zm0-210.344H426.383V362.625a3.381,3.381,0,0,1,3.375-3.375H650.242a3.381,3.381,0,0,1,3.375,3.375Zm44.633,21.031V603.344H664.867V414.031ZM465.758,370.5a5.625,5.625,0,1,0,5.625,5.625,5.626,5.626,0,0,0-5.625-5.625ZM631.492,477.84H607.363a10.888,10.888,0,0,0-10.875,10.875v24.129a10.888,10.888,0,0,0,10.875,10.875h24.129a10.888,10.888,0,0,0,10.875-10.875V488.715a10.888,10.888,0,0,0-10.875-10.875Zm-.375,34.629H607.738V489.09h23.379ZM567.27,535.992h-9.516a5.628,5.628,0,0,0-5.625,5.637v33.047a6.333,6.333,0,0,0,1.73,4.539,5.627,5.627,0,0,0,3.961,1.633h.024c.289,0,7.082-.028,9.8-.075,10.9-.191,18.817-9.593,18.817-22.355,0-13.414-7.711-22.426-19.2-22.426Zm.183,33.531c-.957.016-2.473.032-4.023.043-.012-3.824-.035-18.336-.039-22.324h3.882c7.372,0,7.946,8.555,7.946,11.176,0,5.461-2.4,11.012-7.766,11.1Zm19.57-61.14c-3.281-2.754-6.16-.754-8.761,1.558a8.377,8.377,0,0,1-5.762,2.016,11.689,11.689,0,1,1,6.531-21.387,5.626,5.626,0,1,0,6.3-9.324A22.939,22.939,0,1,0,572.5,523.2a19.55,19.55,0,0,0,13.242-4.859c2.969-2.641,4.84-6.977,1.281-9.961Zm-68.351,26.586H494.543a10.888,10.888,0,0,0-10.875,10.875v24.129a10.888,10.888,0,0,0,10.875,10.875h24.129a10.888,10.888,0,0,0,10.875-10.875V545.844a10.888,10.888,0,0,0-10.875-10.875ZM518.3,569.6H494.918V546.219H518.3Zm-55.32-87.633a6.384,6.384,0,0,0-5.989-4.125h-.008A6.4,6.4,0,0,0,451,481.949L438,516.09a5.624,5.624,0,1,0,10.512,4l1.859-4.879H463.5l1.832,4.863a5.626,5.626,0,0,0,10.527-3.973Zm-8.321,22,2.309-6.063,2.289,6.063Zm-6.148-50.477H631.492a10.888,10.888,0,0,0,10.875-10.875V426.375A10.888,10.888,0,0,0,631.492,415.5H510.758a5.625,5.625,0,1,0,0,11.25H631.117v15.488H448.883V426.75h35.625a5.625,5.625,0,0,0,0-11.25h-36a10.888,10.888,0,0,0-10.875,10.875v16.238a10.888,10.888,0,0,0,10.875,10.875Zm70.164,24.352H494.543a10.888,10.888,0,0,0-10.875,10.875v24.129a10.888,10.888,0,0,0,10.875,10.875h24.129a10.888,10.888,0,0,0,10.875-10.875V488.715a10.888,10.888,0,0,0-10.875-10.875Zm-.375,34.629H494.918V489.09H518.3Zm0,0"/>
    </g>
  </g>
</svg>
