<svg xmlns="http://www.w3.org/2000/svg" width="496.066" height="363.149" viewBox="0 0 496.066 363.149">
  <g id="Group_41" data-name="Group 41" transform="translate(4452.112 9033.149)">
    <rect id="Rectangle_21" data-name="Rectangle 21" width="363" height="253" rx="4" transform="translate(-4346 -9012)" fill="#ff4d4f"/>
    <path id="Path_67" data-name="Path 67" d="M577.156,726.375H502.844l11.25-83.652h51.812Zm0,0" transform="translate(-4698 -9402)" fill="#ff4d4f"/>
    <path id="Path_68" data-name="Path 68" d="M565.906,642.723h-22.5l11.25,83.652h22.5Zm0,0" transform="translate(-4698 -9402)" fill="#f92e31"/>
    <path id="Path_69" data-name="Path 69" d="M588.672,690.207l7.922,28.566a6,6,0,0,1-5.782,7.6H489.188a6,6,0,0,1-5.782-7.6l7.922-28.566a6,6,0,0,1,5.781-4.395h85.782a6,6,0,0,1,5.781,4.395Zm0,0" transform="translate(-4698 -9402)" fill="#ff4d4f"/>
    <path id="Path_70" data-name="Path 70" d="M596.594,718.773l-7.922-28.566a6,6,0,0,0-5.781-4.395h-22.5a6,6,0,0,1,5.781,4.395l7.922,28.566a6,6,0,0,1-5.782,7.6h22.5a6,6,0,0,0,5.782-7.6Zm0,0" transform="translate(-4698 -9402)" fill="#f92e31"/>
    <path id="Path_63" data-name="Path 63" d="M703.875,385.91h-22.5a22.5,22.5,0,0,1,22.5,22.5V620.223a22.5,22.5,0,0,1-22.5,22.5h22.5a22.5,22.5,0,0,0,22.5-22.5V408.41a22.5,22.5,0,0,0-22.5-22.5Zm0,0" transform="translate(-4700 -9402)" fill="#f92e31"/>
    <path id="Path_76" data-name="Path 76" d="M703.875,380.281H376.125A28.157,28.157,0,0,0,348,408.406V539.867a5.625,5.625,0,0,0,11.25,0V408.406a16.9,16.9,0,0,1,16.875-16.875H664.867v11.25H379.125a8.635,8.635,0,0,0-8.625,8.625V605.969a8.635,8.635,0,0,0,8.625,8.625h321.75a8.635,8.635,0,0,0,8.625-8.625V411.406a8.635,8.635,0,0,0-8.625-8.625H664.867v-11.25h39.008a16.9,16.9,0,0,1,16.875,16.875V620.219a16.9,16.9,0,0,1-16.875,16.875H376.125a16.9,16.9,0,0,1-16.875-16.875v-54.1a5.625,5.625,0,0,0-11.25,0v54.1a28.157,28.157,0,0,0,28.125,28.125H507.664l-4.285,31.844h-6.27a11.658,11.658,0,0,0-11.2,8.515l-7.922,28.567a11.623,11.623,0,0,0,11.2,14.73H590.812a11.628,11.628,0,0,0,11.2-14.73l-7.926-28.563a11.657,11.657,0,0,0-11.2-8.519h-6.27l-4.285-31.844H703.875A28.157,28.157,0,0,0,732,620.219V408.406A28.157,28.157,0,0,0,703.875,380.281ZM381.75,414.031ZM519.016,648.344h41.972l4.282,31.844H514.73Zm63.875,43.094a.367.367,0,0,1,.359.273l7.922,28.562a.418.418,0,0,1-.36.477H489.188a.413.413,0,0,1-.36-.477l7.922-28.562a.378.378,0,0,1,.359-.277h85.782Z" transform="translate(-4703 -9402)"/>
    <path id="Path_65" data-name="Path 65" d="M376.125,602.4V411.356a2.96,2.96,0,0,1,2.971-2.946H697.761a2.96,2.96,0,0,1,2.971,2.946V602.4a2.96,2.96,0,0,1-2.971,2.946H379.1a2.96,2.96,0,0,1-2.971-2.946Zm0,0" transform="translate(-4700.815 -9400.378)" fill="#ffe9e9"/>
    <g id="Group_37" data-name="Group 37" transform="translate(-4828.112 -9245.025)">
      <path id="Path_195" data-name="Path 195" d="M555.308,574H394.927a13.3,13.3,0,0,1-13.3-13.3V366.927a13.3,13.3,0,0,1,13.3-13.3h160.38a13.3,13.3,0,0,1,13.3,13.3V560.7a13.3,13.3,0,0,1-13.3,13.3Zm0,0" transform="translate(-2.299 -2.299)" fill="#ff4d4f"/>
      <path id="Path_196" data-name="Path 196" d="M666.2,353.625H652.9a13.3,13.3,0,0,1,13.3,13.3V560.7A13.3,13.3,0,0,1,652.9,574h13.3a13.3,13.3,0,0,0,13.3-13.3V366.927a13.3,13.3,0,0,0-13.3-13.3Zm0,0" transform="translate(-113.193 -2.299)" fill="#f92e31"/>
      <path id="Path_197" data-name="Path 197" d="M404.125,540.186V379.229a3.1,3.1,0,0,1,3.1-3.1H561.4a3.1,3.1,0,0,1,3.1,3.1V540.186a3.105,3.105,0,0,1-3.1,3.1H407.229a3.105,3.105,0,0,1-3.1-3.1Zm0,0" transform="translate(-11.497 -11.497)" fill="#ffe9e9"/>
      <path id="Path_198" data-name="Path 198" d="M660.951,376.125h-13.3a3.1,3.1,0,0,1,3.1,3.1V540.186a3.1,3.1,0,0,1-3.1,3.1h13.3a3.1,3.1,0,0,0,3.1-3.1V379.229a3.1,3.1,0,0,0-3.1-3.1Zm0,0" transform="translate(-111.047 -11.497)" fill="#ecbbbc"/>
      <path id="Path_205" data-name="Path 205" d="M660.951,376.125h-13.3a3.1,3.1,0,0,1,3.1,3.1V540.186a3.1,3.1,0,0,1-3.1,3.1h13.3a3.1,3.1,0,0,0,3.1-3.1V379.229a3.1,3.1,0,0,0-3.1-3.1Zm0,0" transform="translate(164.953 -123.497)" fill="#ecbbbc"/>
      <path id="Path_199" data-name="Path 199" d="M541.814,688.026a6.651,6.651,0,1,1-6.651-6.651,6.65,6.65,0,0,1,6.651,6.651Zm0,0" transform="translate(-62.345 -136.28)" fill="#fff"/>
      <path id="Path_204" data-name="Path 204" d="M472.818,541.77a9.977,9.977,0,1,0,9.977,9.977,9.988,9.988,0,0,0-9.977-9.977Zm0,13.3a3.326,3.326,0,1,1,3.326-3.326,3.329,3.329,0,0,1-3.326,3.326ZM553.008,348H392.628A16.647,16.647,0,0,0,376,364.628V558.4a16.647,16.647,0,0,0,16.628,16.628h160.38A16.647,16.647,0,0,0,569.636,558.4V364.628A16.647,16.647,0,0,0,553.008,348Zm9.977,210.4a9.988,9.988,0,0,1-9.977,9.977H392.628a9.988,9.988,0,0,1-9.977-9.977V364.628a9.988,9.988,0,0,1,9.977-9.977h160.38a9.988,9.988,0,0,1,9.977,9.977ZM549.9,361.3H395.732a6.437,6.437,0,0,0-6.429,6.429v115.3a3.326,3.326,0,0,0,6.651,0V367.953H549.683V528.467H395.953V498.547a3.326,3.326,0,0,0-6.651,0v30.142a6.437,6.437,0,0,0,6.429,6.429H549.9a6.437,6.437,0,0,0,6.429-6.429V367.732A6.437,6.437,0,0,0,549.9,361.3Z"/>
    </g>
    <g id="Group_36" data-name="Group 36" transform="translate(-4480 -9184.602)">
      <path id="Path_187" data-name="Path 187" d="M514.936,515.346H437.387a9.762,9.762,0,0,1-9.762-9.762v-142.2a9.762,9.762,0,0,1,9.762-9.762h77.549a9.762,9.762,0,0,1,9.762,9.762v142.2a9.762,9.762,0,0,1-9.762,9.762Zm0,0" transform="translate(-3.185 -3.185)" fill="#ffe9e9"/>
      <path id="Path_188" data-name="Path 188" d="M613.581,353.625H601.867a9.762,9.762,0,0,1,9.762,9.762v142.2a9.762,9.762,0,0,1-9.762,9.762h11.714a9.762,9.762,0,0,0,9.762-9.762v-142.2a9.762,9.762,0,0,0-9.762-9.762Zm0,0" transform="translate(-101.83 -3.185)" fill="#ecbbbc"/>
      <path id="Path_189" data-name="Path 189" d="M529.525,366.807H491.973a3.254,3.254,0,0,1-3.254-3.254v-9.928h44.06v9.928a3.254,3.254,0,0,1-3.254,3.254Zm0,0" transform="translate(-37.772 -3.185)" fill="#ff4d4f"/>
      <path id="Path_194" data-name="Path 194" d="M521.513,475.555a2.441,2.441,0,0,0,2.44-2.44V360.2a12.216,12.216,0,0,0-12.2-12.2H434.2A12.216,12.216,0,0,0,422,360.2V502.4a12.216,12.216,0,0,0,12.2,12.2h77.549a12.216,12.216,0,0,0,12.2-12.2V484.5a2.44,2.44,0,1,0-4.881,0v17.9a7.33,7.33,0,0,1-7.321,7.321H434.2a7.33,7.33,0,0,1-7.321-7.321V360.2a7.33,7.33,0,0,1,7.321-7.321h14.3v7.488a5.7,5.7,0,0,0,5.694,5.694h37.552a5.7,5.7,0,0,0,5.694-5.694v-7.488h14.3a7.33,7.33,0,0,1,7.321,7.321V473.114a2.44,2.44,0,0,0,2.44,2.44ZM492.566,360.368a.814.814,0,0,1-.814.813H454.2a.814.814,0,0,1-.814-.813v-7.488h39.179Z"/>
    </g>
    <path id="Path_79" data-name="Path 79" d="M462.719,579.9a6.4,6.4,0,0,0-8.895,0l-27.148,27.148a6.4,6.4,0,0,0,8.89,9.207c.055-.05.106-.1.161-.156l27.148-27.148a6.407,6.407,0,0,0-.156-9.051Zm0,0" transform="translate(-4783 -9401)"/>
    <path id="Path_80" data-name="Path 80" d="M601.969,439.875a6.4,6.4,0,0,0-8.9,0l-63.359,63.359a6.4,6.4,0,0,0,8.89,9.207c.055-.051.106-.1.161-.156l63.359-63.364a6.394,6.394,0,0,0-.156-9.046Zm0,0" transform="translate(-4703 -9371)"/>
    <path id="Path_81" data-name="Path 81" d="M700.617,597.222a6.4,6.4,0,0,0-8.89,0l-18.1,18.1a6.4,6.4,0,0,0,8.9,9.207c.05-.055.1-.106.156-.16l18.1-18.1a6.4,6.4,0,0,0-.156-9.051Zm0,0" transform="translate(-4686 -9359)"/>
    <path id="Path_208" data-name="Path 208" d="M462.719,579.9a6.4,6.4,0,0,0-8.895,0l-27.148,27.148a6.4,6.4,0,0,0,8.89,9.207c.055-.05.106-.1.161-.156l27.148-27.148a6.407,6.407,0,0,0-.156-9.051Zm0,0" transform="translate(-4813 -9401)"/>
    <path id="Path_209" data-name="Path 209" d="M601.969,439.875a6.4,6.4,0,0,0-8.9,0l-63.359,63.359a6.4,6.4,0,0,0,8.89,9.207c.055-.051.106-.1.161-.156l63.359-63.364a6.394,6.394,0,0,0-.156-9.046Zm0,0" transform="translate(-4743 -9371)"/>
    <path id="Path_210" data-name="Path 210" d="M700.617,597.222a6.4,6.4,0,0,0-8.89,0l-18.1,18.1a6.4,6.4,0,0,0,8.9,9.207c.05-.055.1-.106.156-.16l18.1-18.1a6.4,6.4,0,0,0-.156-9.051Zm0,0" transform="translate(-4707 -9369)"/>
  </g>
</svg>
