<svg width="883" height="692" viewBox="0 0 883 692" fill="none" xmlns="http://www.w3.org/2000/svg">
<g clip-path="url(#clip0)">
<path d="M583.736 688.607C434.536 702.129 288.901 675.059 162.614 610.368C15.8077 535.172 -42.2867 355.143 32.862 208.246C108.011 61.3732 287.953 3.31773 434.735 78.438C459.643 91.2117 494.351 96.6755 529.88 93.4571C565.435 90.2387 598.571 78.6127 620.787 61.5728C751.711 -38.7456 939.134 -13.9218 1039.42 117.083C1139.7 248.089 1114.86 435.627 983.939 535.971C871.316 622.318 732.936 675.084 583.736 688.607Z" fill="#FFF4F5"/>
<path d="M625.873 188.212C607.273 164.212 575.383 153.933 538.258 154.781C478.942 156.153 375.968 200.762 317.474 190.009C258.981 179.231 265.913 126.789 302.24 109.674C338.019 92.8338 403.195 120.003 403.195 120.003" stroke="white" stroke-width="0.75" stroke-miterlimit="10" stroke-linecap="round" stroke-linejoin="round"/>
<path d="M19.373 577.311C19.373 577.311 91.1308 410.18 157.254 407.586C223.376 404.991 300.42 501.168 357.766 475.146C415.113 449.125 526.365 318.17 615.276 318.17C750.739 318.17 778.564 577.311 778.564 577.311H19.373V577.311Z" fill="#B6D4CA"/>
<path d="M725.98 417.765L746.026 410.355C744.381 401.373 741.189 392.766 736.602 384.882L716.555 392.292C713.264 387.402 709.225 382.986 704.463 379.219L713.389 359.809C709.699 357.264 705.784 354.944 701.57 352.998C697.357 351.052 693.043 349.605 688.705 348.457L679.779 367.867C673.845 366.695 667.861 366.495 662.001 367.194L654.596 347.135C645.62 348.782 637.018 351.975 629.139 356.566L636.545 376.624C631.658 379.918 627.245 383.959 623.48 388.724L604.082 379.793C601.538 383.485 599.22 387.402 597.275 391.618C595.33 395.835 593.884 400.151 592.737 404.492L612.135 413.424C610.963 419.361 610.764 425.349 611.462 431.212L591.416 438.622C593.061 447.603 596.253 456.21 600.84 464.094L620.887 456.684C624.178 461.574 628.217 465.99 632.979 469.733L624.053 489.143C627.743 491.687 631.658 494.008 635.871 495.954C640.085 497.9 644.399 499.347 648.737 500.494L657.663 481.084C663.597 482.257 669.581 482.456 675.44 481.758L682.846 501.817C691.822 500.17 700.423 496.976 708.302 492.386L700.897 472.327C705.784 469.034 710.197 464.992 713.937 460.227L733.335 469.159C735.878 465.466 738.197 461.549 740.142 457.333C742.087 453.117 743.533 448.801 744.68 444.46L725.282 435.528C726.479 429.59 726.678 423.603 725.98 417.765Z" stroke="white" stroke-width="0.4805" stroke-miterlimit="10"/>
<path d="M682.031 439.346C690.222 431.996 690.908 419.393 683.563 411.197C676.218 403 663.623 402.314 655.432 409.664C647.24 417.014 646.555 429.616 653.9 437.813C661.245 446.009 673.84 446.695 682.031 439.346Z" stroke="white" stroke-width="0.4805" stroke-miterlimit="10"/>
<path d="M709.823 443.362C699.401 466.065 672.548 475.995 649.859 465.566C627.17 455.138 617.246 428.268 627.668 405.565C638.09 382.862 664.943 372.932 687.633 383.361C710.322 393.814 720.245 420.659 709.823 443.362Z" stroke="white" stroke-width="0.4805" stroke-miterlimit="10"/>
<path d="M624.402 319.292L634.027 313.405C632.256 308.939 629.738 304.797 626.547 301.18L616.922 307.068C614.728 304.872 612.185 303.001 609.343 301.529L611.986 290.577C609.817 289.629 607.548 288.83 605.179 288.256C602.81 287.683 600.417 287.358 598.048 287.208L595.405 298.161C592.214 298.161 589.097 298.66 586.13 299.633L580.246 290.003C575.783 291.774 571.644 294.294 568.029 297.487L573.913 307.117C571.719 309.313 569.849 311.858 568.378 314.702L557.432 312.057C556.484 314.228 555.687 316.498 555.113 318.868C554.54 321.238 554.216 323.633 554.066 326.004L565.012 328.648C565.012 331.842 565.51 334.96 566.483 337.929L556.858 343.817C558.629 348.283 561.147 352.424 564.338 356.042L573.963 350.154C576.157 352.349 578.7 354.221 581.542 355.692L578.899 366.645C581.069 367.593 583.338 368.391 585.706 368.965C588.075 369.539 590.468 369.863 592.837 370.013L595.48 359.061C598.671 359.061 601.788 358.562 604.755 357.589L610.639 367.219C615.102 365.447 619.241 362.928 622.857 359.734L616.972 350.104C619.166 347.908 621.036 345.364 622.508 342.52L633.453 345.164C634.401 342.994 635.199 340.723 635.772 338.353C636.345 335.983 636.67 333.588 636.819 331.218L625.874 328.573C625.874 325.355 625.375 322.236 624.402 319.292Z" stroke="white" stroke-width="0.4805" stroke-miterlimit="10"/>
<path d="M605.678 331.068C604.306 336.707 598.646 340.199 592.987 338.827C587.352 337.455 583.861 331.792 585.232 326.128C586.604 320.49 592.263 316.997 597.923 318.369C603.558 319.741 607.049 325.405 605.678 331.068Z" stroke="white" stroke-width="0.4805" stroke-miterlimit="10"/>
<path d="M607.858 349.017C619.126 342.177 622.718 327.493 615.883 316.219C609.047 304.945 594.372 301.35 583.105 308.189C571.838 315.029 568.245 329.713 575.08 340.988C581.916 352.262 596.591 355.857 607.858 349.017Z" stroke="white" stroke-width="0.4805" stroke-miterlimit="10"/>
<path d="M766.945 576.887C766.945 576.887 792.302 526.566 784.398 518.682C776.494 510.773 765.698 534.125 759.041 527.439C752.384 520.753 774.425 459.005 759.041 451.82C743.657 444.659 730.792 486.398 725.805 488.818C720.819 491.238 710.422 460.177 696.085 471.13C681.748 482.082 704.188 531.655 696.085 530.782C687.982 529.909 675.041 477.941 653.449 487.072C631.857 496.228 645.57 576.887 645.57 576.887H766.945V576.887Z" fill="url(#paint0_linear)"/>
<path d="M756.548 451.82C756.548 451.82 737.848 526.99 710.846 576.887" stroke="white" stroke-width="0.3816" stroke-miterlimit="10"/>
<path d="M764.601 469.458C764.601 469.458 757.096 489.542 741.987 501.342" stroke="white" stroke-width="0.3816" stroke-miterlimit="10"/>
<path d="M699.326 469.458C699.326 469.458 703.315 495.579 730.044 534.624" stroke="white" stroke-width="0.3816" stroke-miterlimit="10"/>
<path d="M782.503 517.384C782.503 517.384 762.033 556.703 717.777 563.165" stroke="white" stroke-width="0.3816" stroke-miterlimit="10"/>
<path d="M655.195 486.473C655.195 486.473 662.002 545.901 682.272 577.411" stroke="white" stroke-width="0.3816" stroke-miterlimit="10"/>
<path d="M673.346 495.43C673.346 495.43 673.246 522.474 666.39 540.287" stroke="white" stroke-width="0.3816" stroke-miterlimit="10"/>
<path d="M155.708 577.76C155.708 577.76 184.73 540.537 183.509 519.256C182.287 497.974 158.6 501.018 159.199 480.935C159.797 460.876 177.425 440.193 161.617 426.197C145.81 412.201 131.224 432.285 119.68 414.022C108.136 395.785 81.6816 355.368 65.3254 360.857C49.9416 366.021 52.0859 388.949 63.1562 411.577C73.6032 432.933 70.9105 443.237 57.6211 438.272C41.3646 432.21 27.6514 455.662 40.1928 472.377C52.435 488.694 79.5623 496.103 76.5204 510.698C73.4786 525.293 57.0725 519.829 60.7128 538.067C64.353 556.304 101.778 577.71 101.778 577.71H155.708V577.76Z" fill="url(#paint1_linear)"/>
<path d="M65.3506 360.882C65.3506 360.882 133.418 482.107 133.418 577.735" stroke="white" stroke-width="0.3816" stroke-miterlimit="10"/>
<path d="M55.0781 387.726C55.0781 387.726 64.8519 393.714 89.6106 410.33" stroke="white" stroke-width="0.3816" stroke-miterlimit="10"/>
<path d="M103.498 390.097C103.498 390.097 106.241 413.124 102.301 440.817" stroke="white" stroke-width="0.3816" stroke-miterlimit="10"/>
<path d="M43.0352 440.817C43.0352 440.817 72.4563 461.624 113.771 472.776" stroke="white" stroke-width="0.3816" stroke-miterlimit="10"/>
<path d="M152.467 420.983C152.467 420.983 140.524 483.205 124.417 510.025" stroke="white" stroke-width="0.3816" stroke-miterlimit="10"/>
<path d="M76.5703 510.748C76.5703 510.748 100.182 533.252 130.975 544.279" stroke="white" stroke-width="0.3816" stroke-miterlimit="10"/>
<path d="M176.253 504.062C176.253 504.062 160.046 539.464 132.844 562.167" stroke="white" stroke-width="0.3816" stroke-miterlimit="10"/>
<path d="M188.495 604.755C204.675 604.755 217.792 602.8 217.792 600.388C217.792 597.977 204.675 596.022 188.495 596.022C172.315 596.022 159.199 597.977 159.199 600.388C159.199 602.8 172.315 604.755 188.495 604.755Z" fill="#C1CCFA"/>
<path d="M227.815 616.48C243.995 616.48 257.112 613.476 257.112 609.769C257.112 606.063 243.995 603.058 227.815 603.058C211.635 603.058 198.519 606.063 198.519 609.769C198.519 613.476 211.635 616.48 227.815 616.48Z" fill="#C1CCFA"/>
<path d="M248.061 605.403C260.11 605.403 269.877 603.158 269.877 600.388C269.877 597.619 260.11 595.374 248.061 595.374C236.012 595.374 226.244 597.619 226.244 600.388C226.244 603.158 236.012 605.403 248.061 605.403Z" fill="#C1CCFA"/>
<path d="M486.173 257.744C486.173 237.411 539.131 238.035 553.916 230.924C568.702 223.839 582.24 191.78 611.188 191.78C640.135 191.78 645.172 215.207 658.062 218.275C670.928 221.369 697.407 213.959 708.502 230.899C719.597 247.839 760.862 242.925 760.862 257.719C760.862 272.514 679.555 281.146 630.91 281.146C582.265 281.146 486.173 280.547 486.173 257.744Z" fill="white"/>
<path d="M387.038 477.117H311.516C311.516 531.93 294.835 559.847 285.361 571.274C283.216 573.843 285.086 577.76 288.452 577.76H410.126C413.467 577.76 415.337 573.868 413.218 571.274C403.718 559.847 387.038 531.93 387.038 477.117Z" fill="#0D3CFA"/>
<path d="M387.038 477.117H311.516C311.516 489.991 310.568 501.343 309.047 511.397L393.097 529.085C389.532 515.339 387.038 498.249 387.038 477.117Z" fill="#061C73"/>
<path d="M577.179 203.955H121.375V498.798H577.179V203.955Z" fill="#738EFA"/>
<path d="M559.476 219.698H139.102V471.13H559.476V219.698Z" fill="white"/>
<path d="M536.662 264.355H440.969V424.251H536.662V264.355Z" fill="#FFCCD4"/>
<path d="M526.839 273.038H450.817V300.805H526.839V273.038Z" stroke="white" stroke-width="0.25" stroke-miterlimit="10"/>
<path d="M450.817 278.651H526.839" stroke="white" stroke-width="0.25" stroke-miterlimit="10"/>
<path d="M450.817 328.948H526.839" stroke="white" stroke-width="0.25" stroke-miterlimit="10"/>
<path d="M450.817 338.453H526.839" stroke="white" stroke-width="0.25" stroke-miterlimit="10"/>
<path d="M450.817 347.933H526.839" stroke="white" stroke-width="0.25" stroke-miterlimit="10"/>
<path d="M450.817 357.439H526.839" stroke="white" stroke-width="0.25" stroke-miterlimit="10"/>
<path d="M450.817 366.919H526.839" stroke="white" stroke-width="0.25" stroke-miterlimit="10"/>
<path d="M450.817 376.425H526.839" stroke="white" stroke-width="0.25" stroke-miterlimit="10"/>
<path d="M450.817 385.905H526.839" stroke="white" stroke-width="0.25" stroke-miterlimit="10"/>
<path d="M450.817 395.411H526.839" stroke="white" stroke-width="0.25" stroke-miterlimit="10"/>
<path d="M450.817 404.891H526.839" stroke="white" stroke-width="0.25" stroke-miterlimit="10"/>
<path d="M450.817 414.372H526.839" stroke="white" stroke-width="0.25" stroke-miterlimit="10"/>
<path d="M237.813 261.861H153.439V453.541H237.813V261.861Z" fill="#D7DEFA"/>
<path d="M228.313 270.867H162.938V336.282H228.313V270.867Z" stroke="white" stroke-width="0.25" stroke-miterlimit="10"/>
<path d="M162.938 270.867L228.313 336.282" stroke="white" stroke-width="0.25" stroke-miterlimit="10"/>
<path d="M228.313 270.867L162.938 336.282" stroke="white" stroke-width="0.25" stroke-miterlimit="10"/>
<path d="M410.176 403.868H256.588C255.64 403.868 254.867 403.095 254.867 402.147C254.867 401.199 255.64 400.425 256.588 400.425H410.176C411.124 400.425 411.896 401.199 411.896 402.147C411.921 403.095 411.148 403.868 410.176 403.868Z" fill="#D7DEFA"/>
<path d="M410.176 414.047H256.588C255.64 414.047 254.867 413.274 254.867 412.326C254.867 411.378 255.64 410.604 256.588 410.604H410.176C411.124 410.604 411.896 411.378 411.896 412.326C411.921 413.274 411.148 414.047 410.176 414.047Z" fill="#D7DEFA"/>
<path d="M410.176 424.252H256.588C255.64 424.252 254.867 423.478 254.867 422.53C254.867 421.582 255.64 420.809 256.588 420.809H410.176C411.124 420.809 411.896 421.582 411.896 422.53C411.921 423.478 411.148 424.252 410.176 424.252Z" fill="#D7DEFA"/>
<path opacity="0.46" d="M405.638 390.271H267.707C262.521 390.271 258.333 386.08 258.333 380.891V275.308C258.333 270.119 262.521 265.927 267.707 265.927H405.638C410.824 265.927 415.013 270.119 415.013 275.308V380.891C415.013 386.08 410.824 390.271 405.638 390.271Z" fill="url(#paint2_linear)"/>
<path d="M402.347 386.205H264.416C259.23 386.205 255.042 382.013 255.042 376.824V271.241C255.042 266.052 259.23 261.861 264.416 261.861H402.347C407.533 261.861 411.722 266.052 411.722 271.241V376.824C411.722 382.013 407.533 386.205 402.347 386.205Z" fill="#FF2B4F"/>
<path d="M255.042 356.641V376.849C255.042 382.038 259.23 386.23 264.416 386.23H402.347C407.533 386.23 411.722 382.038 411.722 376.849V356.641H255.042Z" fill="#D7DEFA"/>
<path d="M315.28 286.036V333.788L357.592 309.912L315.28 286.036Z" stroke="white" stroke-miterlimit="10"/>
<path d="M386.639 369.813H280.124C278.329 369.813 276.858 368.341 276.858 366.545C276.858 364.749 278.329 363.277 280.124 363.277H386.639C388.434 363.277 389.905 364.749 389.905 366.545C389.905 368.366 388.434 369.813 386.639 369.813Z" stroke="#0D3CFA" stroke-width="0.4257" stroke-miterlimit="10"/>
<path d="M276.858 374.678H389.905" stroke="#0D3CFA" stroke-width="0.4257" stroke-miterlimit="10"/>
<path d="M276.858 379.543H389.905" stroke="#0D3CFA" stroke-width="0.4257" stroke-miterlimit="10"/>
<path d="M559.476 219.698H139.102V236.488H559.476V219.698Z" fill="#D7DEFA"/>
<path d="M156.556 228.105C156.556 229.677 155.284 230.949 153.713 230.949C152.143 230.949 150.871 229.677 150.871 228.105C150.871 226.533 152.143 225.261 153.713 225.261C155.284 225.261 156.556 226.509 156.556 228.105Z" stroke="#061C73" stroke-width="0.6485" stroke-miterlimit="10" stroke-linecap="round" stroke-linejoin="round"/>
<path d="M173.012 228.105C173.012 229.677 171.74 230.949 170.17 230.949C168.599 230.949 167.327 229.677 167.327 228.105C167.327 226.533 168.599 225.261 170.17 225.261C171.74 225.261 173.012 226.509 173.012 228.105Z" stroke="#061C73" stroke-width="0.6485" stroke-miterlimit="10" stroke-linecap="round" stroke-linejoin="round"/>
<path d="M189.492 228.105C189.492 229.677 188.221 230.949 186.65 230.949C185.079 230.949 183.808 229.677 183.808 228.105C183.808 226.533 185.079 225.261 186.65 225.261C188.221 225.261 189.492 226.509 189.492 228.105Z" stroke="#061C73" stroke-width="0.6485" stroke-miterlimit="10" stroke-linecap="round" stroke-linejoin="round"/>
<path d="M7.72949 577.76H791.679" stroke="#061C73" stroke-width="0.5" stroke-miterlimit="10"/>
<path d="M411.623 587.166C411.623 589.76 402.123 591.856 390.43 591.856C378.736 591.856 369.236 589.76 369.236 587.166C369.236 584.571 378.736 582.475 390.43 582.475C402.123 582.475 411.623 584.571 411.623 587.166Z" fill="#C1CCFA"/>
<path d="M505.72 587.166C505.72 589.76 496.221 591.856 484.527 591.856C472.809 591.856 463.334 589.76 463.334 587.166C463.334 584.571 472.834 582.475 484.527 582.475C496.246 582.475 505.72 584.571 505.72 587.166Z" fill="#C1CCFA"/>
<path d="M400.752 538.965C400.752 538.965 397.336 565.56 396.314 572.945C394.843 583.448 380.132 580.48 379.733 583.823C379.309 587.291 401.45 588.563 403.519 586.941C405.589 585.32 402.597 584.546 404.791 575.465C406.985 566.384 414.116 538.391 414.116 538.391L400.752 538.965Z" fill="#FF9CAF"/>
<path d="M470.041 538.691C470.041 538.691 480.562 564.712 483.006 572.92C486.048 583.099 473.132 583.199 473.382 586.542C473.506 588.089 493.328 586.791 495.074 584.846C496.819 582.9 494.051 579.357 491.782 573.918C487.768 564.313 483.081 535.772 483.081 535.772L470.041 538.691Z" fill="#FF9CAF"/>
<path d="M453.486 401.323C453.486 401.323 465.329 441.765 467.473 485.55C467.473 485.55 483.58 517.484 487.22 540.287H467.473C467.473 540.287 443.762 494.382 435.559 437.823C435.559 437.823 430.397 464.269 424.912 486.772C424.912 486.772 426.732 520.528 423.092 540.287H400.004C400.004 540.287 401.226 491.039 406.387 460.926C411.548 430.813 415.512 401.323 415.512 401.323H453.486Z" fill="#061C73"/>
<path opacity="0.46" d="M460.167 429.49C456.752 412.525 453.485 401.323 453.485 401.323H415.512C415.512 401.323 414.814 406.563 413.617 414.821C422.169 420.284 440.869 430.463 460.167 429.49Z" fill="url(#paint3_linear)"/>
<path d="M404.018 346.337L386.764 358.237C386.764 358.237 370.233 341.796 368.638 338.777C367.042 335.759 365.621 331.867 362.629 329.571C359.612 327.276 353.154 325.33 352.905 326.203C352.631 327.076 357.418 327.8 358.739 329.047C358.739 329.047 355.997 333.837 358.29 337.28C360.584 340.723 364.923 341.796 364.923 341.796C364.923 341.796 377.115 369.514 385.443 370.362C389.781 370.811 410.625 355.518 410.625 355.518L404.018 346.337Z" fill="#FF9CAF"/>
<path d="M425.685 296.215C419.427 298.286 421.845 304.124 420.623 307.167C419.402 310.211 415.462 313.205 416.784 318.594C418.105 323.983 419.526 326.827 418.105 328.548C416.684 330.27 415.462 333.413 421.845 333.413C428.228 333.413 430.447 333.413 435.608 333.413C440.769 333.413 442.191 329.047 439.972 322.76C437.753 316.473 437.578 306.444 437.902 302.078C438.226 297.737 429.923 294.818 425.685 296.215Z" fill="#061C73"/>
<path d="M414.49 358.686C414.789 362.229 416.385 364.948 416.784 371.734C417.183 378.52 413.842 405.49 413.842 405.49C431.968 413.099 458.622 405.49 458.622 405.49C451.541 390.596 452.538 370.512 452.538 370.512C452.538 370.512 462.96 367.269 464.481 365.946C466.002 364.624 460.841 352.374 458.696 347.085C456.577 341.821 451.516 334.311 446.03 333.413C440.57 332.49 431.245 331.891 431.245 331.891C425.46 331.891 417.158 335.534 411.797 339.501C406.436 343.443 402.946 346.686 402.946 346.686L408.556 360.233C409.005 361.281 410.301 361.655 411.224 361.007L414.49 358.686Z" fill="#FF8800"/>
<path d="M433.988 301.504C438.7 301.454 444.634 304.049 445.532 313.654C446.454 323.284 443.313 328.848 443.512 333.813C443.512 333.813 432.367 338.079 432.367 333.813C432.367 329.546 432.866 327.525 431.569 326.727C430.248 325.929 424.887 326.528 424.164 323.683C423.466 320.839 424.513 317.346 423.516 315.625C422.518 313.903 421.147 313.504 421.147 313.504C421.147 313.504 423.266 313.355 424.787 309.188C426.283 305.047 429.25 301.554 433.988 301.504Z" fill="#FF9CAF"/>
<path d="M427.056 325.829C428.801 326.253 430.821 326.278 431.544 326.727C432.866 327.525 432.342 329.571 432.342 333.812C432.342 338.079 443.487 333.812 443.487 333.812C443.313 329.397 445.756 324.457 445.656 316.648C445.432 316.723 445.208 316.897 445.008 317.172C441.767 321.588 429.874 326.178 427.056 325.829Z" fill="url(#paint4_linear)"/>
<path d="M425.685 296.215C425.685 296.215 423.566 300.855 429.749 302.652C435.908 304.423 430.447 313.105 433.988 318.594C437.528 324.083 439.548 326.727 438.351 332.79C437.129 338.877 438.351 343.742 443.213 343.742C448.075 343.742 450.718 343.742 454.258 343.742C457.799 343.742 461.664 340 457.599 332.69C453.535 325.405 449.995 324.981 451.017 316.872C452.014 308.789 447.751 290.651 425.685 296.215Z" fill="#061C73"/>
<path d="M470.34 424.601H434.262C433.29 424.601 432.517 423.827 432.517 422.854V395.785C432.517 394.812 433.29 394.038 434.262 394.038H470.34C471.313 394.038 472.086 394.812 472.086 395.785V422.854C472.086 423.802 471.313 424.601 470.34 424.601Z" fill="url(#paint5_linear)"/>
<path d="M456.852 409.307C456.852 411.827 454.807 413.873 452.289 413.873C449.771 413.873 447.726 411.827 447.726 409.307C447.726 406.787 449.771 404.741 452.289 404.741C454.807 404.741 456.852 406.787 456.852 409.307Z" fill="#0D3CFA"/>
<path d="M495.098 584.821C496.395 583.374 495.198 581.028 493.578 577.71C489.663 579.107 485.649 579.307 482.582 579.157C480.089 583.349 473.232 584.072 473.407 586.517C473.531 588.064 493.353 586.767 495.098 584.821Z" fill="#061C73"/>
<path d="M404.018 579.956C397.56 580.754 394.045 580.155 392.125 579.307C387.263 582.226 380.032 581.502 379.733 583.823C379.309 587.291 401.45 588.563 403.519 586.941C405.165 585.644 403.594 584.871 404.018 579.956Z" fill="#061C73"/>
<path d="M414.49 358.686C413.418 351.227 420.225 347.434 420.324 343.767" stroke="#BD6400" stroke-width="0.25" stroke-miterlimit="10"/>
<path d="M444.085 347.484C444.085 347.484 442.39 351.95 452.538 370.961" stroke="#BD6400" stroke-width="0.25" stroke-miterlimit="10"/>
<path d="M453.311 368.416L461.09 390.546C461.09 390.546 450.543 418.114 448.923 420.035C447.302 421.956 441.642 425.299 442.24 426.023C442.839 426.721 445.881 424.8 445.881 424.8C445.881 424.8 443.238 427.345 445.581 427.345C447.9 427.345 448.623 427.345 450.842 427.345C453.061 427.345 454.283 420.659 454.283 420.659C454.283 420.659 469.692 398.654 470.191 390.77C470.614 384.034 465.154 368.965 463.533 364.674C463.284 364.025 462.561 363.701 461.913 363.95L454.009 366.844C453.435 367.044 453.086 367.768 453.311 368.416Z" fill="#FF9CAF"/>
<path d="M466.426 535.747H485.948" stroke="#D7DEFA" stroke-width="0.25" stroke-miterlimit="10"/>
<path d="M400.976 535.747H422.269" stroke="#D7DEFA" stroke-width="0.25" stroke-miterlimit="10"/>
<path opacity="0.46" d="M497.243 276.53C485.3 276.53 475.601 286.235 475.601 298.186C475.601 301.878 476.523 305.346 478.144 308.39C476.124 310.485 472.384 313.429 466.55 314.253C466.55 314.253 474.803 319.766 484.252 315.5C487.868 318.22 492.356 319.866 497.243 319.866C509.186 319.866 518.885 310.161 518.885 298.211C518.885 286.26 509.21 276.53 497.243 276.53Z" fill="url(#paint6_linear)"/>
<path d="M495.473 274.709C483.53 274.709 473.83 284.414 473.83 296.365C473.83 300.057 474.753 303.525 476.374 306.544C474.354 308.639 470.614 311.583 464.78 312.407C464.78 312.407 473.033 317.92 482.482 313.654C486.098 316.373 490.586 318.02 495.473 318.02C507.415 318.02 517.114 308.315 517.114 296.365C517.114 284.414 507.415 274.709 495.473 274.709Z" fill="white"/>
<path d="M495.846 284.439C496.893 284.439 497.916 284.589 498.913 284.888C499.91 285.188 500.783 285.612 501.556 286.186C502.329 286.759 502.952 287.458 503.426 288.306C503.9 289.154 504.124 290.127 504.124 291.2C504.124 292.098 503.974 292.872 503.7 293.545C503.426 294.194 503.052 294.793 502.628 295.317C502.179 295.841 501.705 296.315 501.207 296.764C500.683 297.213 500.209 297.612 499.736 298.011C499.287 298.41 498.863 298.81 498.539 299.234C498.19 299.658 497.99 300.107 497.916 300.606C497.866 300.855 497.766 301.055 497.616 301.255C497.467 301.429 497.267 301.529 497.018 301.529H494.475C494.225 301.529 494.001 301.429 493.827 301.255C493.627 301.08 493.552 300.855 493.577 300.606C493.627 299.733 493.802 298.959 494.126 298.311C494.45 297.662 494.849 297.063 495.298 296.539C495.746 296.015 496.245 295.541 496.769 295.117C497.292 294.693 497.791 294.294 498.24 293.895C498.689 293.496 499.063 293.121 499.337 292.722C499.636 292.323 499.786 291.899 499.786 291.425C499.786 290.577 499.437 289.878 498.713 289.329C497.99 288.78 497.043 288.506 495.871 288.506C493.976 288.506 492.58 289.454 491.682 291.35C491.558 291.599 491.458 291.774 491.333 291.899C491.209 292.024 491.009 292.073 490.71 292.073H487.992C487.793 292.073 487.618 291.999 487.469 291.874C487.319 291.749 487.244 291.55 487.244 291.325C487.269 290.552 487.518 289.728 487.967 288.93C488.416 288.107 489.039 287.383 489.812 286.71C490.585 286.061 491.483 285.512 492.53 285.088C493.552 284.639 494.649 284.439 495.846 284.439ZM497.193 303.525C497.442 303.525 497.641 303.625 497.841 303.799C498.015 303.974 498.115 304.199 498.115 304.448V307.417C498.115 307.666 498.015 307.866 497.841 308.066C497.666 308.24 497.442 308.34 497.193 308.34H494.3C494.051 308.34 493.851 308.24 493.652 308.066C493.477 307.891 493.378 307.666 493.378 307.417V304.448C493.378 304.199 493.477 303.999 493.652 303.799C493.827 303.625 494.051 303.525 494.3 303.525H497.193Z" fill="#0D3CFA"/>
<path d="M193.008 585.145V514.565H182.162V585.669C182.162 587.815 180.866 589.786 178.871 590.534C172.987 592.754 168.998 596.397 168.998 597.894C168.998 600.089 177.649 601.861 188.346 601.861C199.042 601.861 207.694 600.089 207.694 597.894C207.694 596.297 203.106 592.206 196.499 590.085C194.38 589.386 193.008 587.365 193.008 585.145Z" fill="#FF9CAF"/>
<path d="M193.008 536.445V514.565H182.162V531.755L193.008 536.445Z" fill="#FF5773"/>
<path d="M210.461 497.725C200.563 497.949 192.061 490.714 190.739 480.86C187.274 454.863 180.766 407.835 177.774 399.752C173.585 388.5 171.316 389.972 158.251 389.972C145.186 389.972 142.444 389.972 133.343 389.972C124.217 389.972 126.062 406.912 129.079 426.048C132.121 445.208 139.402 481.084 143.067 495.679C146.707 510.274 156.905 519.705 171.865 519.705C186.825 519.705 208.616 519.705 218.889 519.705C229.136 519.705 241.229 517.384 242.75 511.696C244.271 506.033 245.168 496.902 245.168 496.902L210.461 497.725Z" fill="#FF9CAF"/>
<path d="M207.17 410.255C211.733 415.569 212.631 430.164 215.672 441.117C218.714 452.069 227.366 471.379 227.366 471.379H210.511C210.511 471.379 205.649 453.441 205.051 433.981C204.453 414.521 207.17 410.255 207.17 410.255Z" fill="#0D3CFA"/>
<path opacity="0.46" d="M207.17 410.255C211.733 415.569 212.631 430.164 215.672 441.117C218.714 452.069 227.366 471.379 227.366 471.379H210.511C210.511 471.379 205.649 453.441 205.051 433.981C204.453 414.521 207.17 410.255 207.17 410.255Z" fill="url(#paint7_linear)"/>
<path d="M177.774 388.525C177.774 388.525 175.106 384.658 176.103 382.063C173.062 377.498 172.239 373.256 173.984 370.587C174.433 364.499 170.842 360.707 172.164 358.337C175.729 351.95 182.636 354.071 186.226 352.474C189.792 350.877 196.399 345.089 205.375 349.58C214.351 354.071 210.237 361.056 212.755 364.699C215.273 368.341 216.021 372.084 213.129 374.504C210.237 376.924 208.94 375.028 207.419 376.55C205.899 378.071 203.779 380.491 203.779 380.491L177.774 388.525Z" fill="#061C73"/>
<path d="M206.522 372.258C206.522 372.258 206.721 376.899 206.123 379.244C205.525 381.589 207.37 384.733 206.671 385.032C205.973 385.331 204.078 384.483 204.078 384.483C204.078 384.483 201.809 392.916 199.59 392.766C196.748 392.567 194.13 390.945 194.13 390.945L189.193 404.941C189.193 404.941 180.99 405.939 176.203 401.149C171.416 396.359 177.574 388.749 179.32 379.868C179.32 379.868 180.541 380.466 181.988 377.897C183.434 375.302 180.317 371.66 183.284 370.612C186.251 369.539 185.802 374.105 185.478 375.028C185.179 375.951 187.822 374.03 188.67 370.462C188.67 370.462 193.158 369.938 195.726 366.969C195.726 366.969 197.322 370.986 201.585 370.238C201.56 370.213 203.48 373.705 206.522 372.258Z" fill="#FF9CAF"/>
<path d="M194.105 390.945C194.105 390.945 194.479 391.169 195.102 391.469C194.778 391.294 194.479 391.095 194.105 390.945Z" fill="url(#paint8_linear)"/>
<path d="M182.187 377.348C182.137 377.523 182.062 377.722 181.963 377.897C180.517 380.491 179.295 379.868 179.295 379.868C177.55 388.749 171.391 396.359 176.178 401.149C180.965 405.939 189.168 404.941 189.168 404.941L194.105 390.945C184.855 387.502 182.187 377.348 182.187 377.348Z" fill="url(#paint9_linear)"/>
<path d="M171.017 393.265C168.175 394.388 151.37 394.962 143.865 405.041C136.36 415.12 149.949 477.617 158.451 477.617C166.953 477.617 215.672 477.617 215.672 477.617C206.871 456.335 207.17 410.255 207.17 410.255C204.153 406.313 195.925 401.673 195.925 401.673C195.925 401.673 195.551 399.852 195.477 399.228C195.402 398.629 192.16 396.484 192.16 396.484L191.188 399.253L186.974 403.918C186.974 403.918 187.722 397.906 183.259 395.86C178.771 393.814 175.655 390.92 175.655 390.92L176.552 388.475C176.552 388.475 174.732 388.325 173.61 388.475C172.488 388.625 171.017 393.265 171.017 393.265Z" fill="#0D3CFA"/>
<path d="M186.8 405.016C186.8 405.016 183.708 446.106 195.925 475.92" stroke="#D7DEFA" stroke-width="0.25" stroke-miterlimit="10"/>
<path opacity="0.46" d="M149.774 411.153C149.774 411.153 149.774 405.964 149.774 402.995C194.106 422.705 182.911 443.437 210.038 472.278C199.117 472.278 149.774 472.278 149.774 472.278V411.153V411.153Z" fill="url(#paint10_linear)"/>
<path d="M289.3 469.034H224.648L237.389 424.127C237.863 422.48 239.359 421.357 241.054 421.357H300.096C301.467 421.357 302.464 422.68 302.09 423.977L289.3 469.034Z" fill="#061C73"/>
<path d="M264.94 452.319C268.879 452.319 272.071 449.124 272.071 445.183C272.071 441.243 268.879 438.048 264.94 438.048C261.002 438.048 257.81 441.243 257.81 445.183C257.81 449.124 261.002 452.319 264.94 452.319Z" fill="white"/>
<path d="M240.705 465.267H171.865V469.034H240.705V465.267Z" fill="#061C73"/>
<path d="M184.531 398.13C184.531 398.13 183.01 401.324 182.113 405.041C181.19 408.758 174.408 405.041 171.018 395.685" stroke="#D7DEFA" stroke-width="0.25" stroke-miterlimit="10"/>
<path d="M192.909 399.777C192.61 402.571 190.216 408.035 190.989 408.384C191.737 408.733 194.529 406.413 195.951 401.673" stroke="#D7DEFA" stroke-width="0.25" stroke-miterlimit="10"/>
<path d="M193.956 462.872C193.956 462.872 197.446 464.394 202.383 464.693C207.32 464.993 216.296 467.113 218.864 469.708H193.357L193.956 462.872Z" fill="#FF9CAF"/>
<path d="M148.228 402.995C155.833 402.995 159.024 413.773 159.174 423.054C159.298 430.489 160.395 443.113 160.819 447.803C160.919 448.926 161.667 449.899 162.739 450.273L195.925 461.974V469.733C195.925 469.733 164.011 469.733 153.09 469.733C142.144 469.733 137.906 468.66 137.282 450.273C136.684 431.861 137.756 402.995 148.228 402.995Z" fill="#0D3CFA"/>
<path d="M238.885 580.056C238.885 580.056 236.466 596.297 237.563 598.468C238.66 600.638 260.277 604.954 261.923 602.933C263.569 600.938 249.756 597.295 249.282 591.732C248.858 586.842 250.254 580.031 250.254 580.031H238.885V580.056Z" fill="#FF9CAF"/>
<path d="M261.899 602.934C263.32 601.212 253.222 598.268 250.13 593.902C243.996 595.499 239.583 594.775 237.314 594.102C237.215 596.197 237.24 597.869 237.539 598.468C238.636 600.638 260.278 604.954 261.899 602.934Z" fill="#061C73"/>
<path d="M222.479 509.077L242.725 511.721L237.663 582.052H252.448C252.448 582.052 267.234 527.314 270.874 509.077C274.514 490.839 249.606 481.109 230.058 476.244H186.824C186.824 476.244 185.004 497.725 222.479 509.077Z" fill="#061C73"/>
<path opacity="0.46" d="M230.083 476.244H186.824C186.824 476.244 185.004 497.725 222.479 509.077L235.594 510.773L256.114 485.8C248.31 481.459 238.685 478.39 230.083 476.244Z" fill="url(#paint11_linear)"/>
<path d="M216.171 488.694C216.171 488.694 252.648 497.85 254.269 503.663C256.987 513.293 243.473 576.164 243.473 576.164" stroke="#0D3CFA" stroke-width="0.25" stroke-miterlimit="10"/>
<path d="M238.087 576.164H254.269" stroke="white" stroke-width="0.25" stroke-miterlimit="10"/>
<path d="M212.955 587.515C212.955 587.515 213.678 605.852 214.899 608.297C216.121 610.717 239.808 615.283 241.628 613.063C243.448 610.842 229.061 606.351 226.743 600.588C224.424 594.825 224.923 587.515 224.923 587.515H212.955Z" fill="#FF9CAF"/>
<path d="M214.874 608.297C216.096 610.717 239.782 615.283 241.602 613.063C243.148 611.167 232.926 607.624 228.438 603.033C222.479 603.732 216.968 602.659 213.802 601.836C214.126 604.904 214.475 607.499 214.874 608.297Z" fill="#061C73"/>
<path d="M198.169 476.045C198.169 476.045 219.437 483.33 225.92 498.948C232.402 514.565 229.361 589.761 229.361 589.761H211.533L196.748 511.123C196.748 511.123 172.837 510.923 163.537 506.856C154.212 502.815 155.035 483.355 157.877 474.024L198.169 476.045Z" fill="#061C73"/>
<path d="M210.087 582.052H229.56" stroke="white" stroke-width="0.25" stroke-miterlimit="10"/>
<path d="M164.21 474.024C164.21 474.024 162.016 490.69 171.69 495.679C181.364 500.669 201.61 496.029 207.693 503.189C213.777 510.349 216.171 582.076 216.171 582.076" stroke="#0D3CFA" stroke-width="0.25" stroke-miterlimit="10"/>
<path d="M291.195 474.024H284.214V616.131H291.195V474.024Z" fill="#FF5773"/>
<path d="M146.857 474.024H139.875V616.131H146.857V474.024Z" fill="#FF5773"/>
<path d="M291.195 474.024H284.214V495.679H291.195V474.024Z" fill="#C4213D"/>
<path d="M146.857 474.024H139.875V495.679H146.857V474.024Z" fill="#C4213D"/>
<path d="M298.8 469.034H132.271V478.989H298.8V469.034Z" fill="#FF5773"/>
<path opacity="0.46" d="M174.458 255.549H59.8149V345.788H127.11L154.087 367.643L150.298 345.788H174.458V255.549Z" fill="url(#paint12_linear)"/>
<path d="M177.2 253.478H62.5825V343.717H129.877L156.855 365.572L153.04 343.717H177.2V253.478Z" fill="#FF5773"/>
<path d="M115.191 321.164V325.929C115.191 327.376 117.311 328.524 119.904 328.524C122.497 328.524 124.616 327.351 124.616 325.929V321.164H115.191Z" fill="#061C73"/>
<path d="M119.904 275.258C112.025 275.258 102.825 278.202 102.825 287.009C102.825 295.816 110.803 300.406 110.803 307.866C110.803 312.831 110.803 312.956 110.803 312.956H119.904H129.005C129.005 312.956 129.005 312.831 129.005 307.866C129.005 300.406 136.983 295.841 136.983 287.009C136.958 278.202 127.783 275.258 119.904 275.258Z" fill="#F5E52F"/>
<path d="M128.979 312.955H110.828V324.706H128.979V312.955Z" fill="#061C73"/>
<path d="M110.828 315.301H128.955" stroke="white" stroke-width="0.3943" stroke-miterlimit="10"/>
<path d="M110.828 318.744H128.955" stroke="white" stroke-width="0.3943" stroke-miterlimit="10"/>
<path d="M110.828 322.187H128.955" stroke="white" stroke-width="0.3943" stroke-miterlimit="10"/>
<path d="M123.918 312.956L125.414 297.013C125.514 295.417 124.916 294.094 124.068 294.094C123.444 294.094 122.896 294.818 122.622 295.816C122.397 294.818 121.899 294.094 121.275 294.094C120.652 294.094 120.128 294.818 119.879 295.816C119.63 294.818 119.106 294.094 118.483 294.094C117.859 294.094 117.361 294.818 117.136 295.816C116.862 294.818 116.314 294.094 115.69 294.094C114.843 294.094 114.244 295.417 114.344 297.013L115.84 312.956" stroke="#FF5773" stroke-width="0.335" stroke-miterlimit="10"/>
<path d="M119.505 264.53V269.52" stroke="white" stroke-width="0.7312" stroke-miterlimit="10" stroke-linejoin="round"/>
<path d="M104.77 267.948L107.737 272.24" stroke="white" stroke-width="0.7312" stroke-miterlimit="10" stroke-linejoin="round"/>
<path d="M94.0239 277.03L99.21 279.525" stroke="white" stroke-width="0.7312" stroke-miterlimit="10" stroke-linejoin="round"/>
<path d="M140.3 299.309L145.486 301.804" stroke="white" stroke-width="0.7312" stroke-miterlimit="10" stroke-linejoin="round"/>
<path d="M90.1841 289.379H96.1681" stroke="white" stroke-width="0.7312" stroke-miterlimit="10" stroke-linejoin="round"/>
<path d="M143.616 289.379H149.6" stroke="white" stroke-width="0.7312" stroke-miterlimit="10" stroke-linejoin="round"/>
<path d="M94.2734 301.679L99.4595 299.184" stroke="white" stroke-width="0.7312" stroke-miterlimit="10" stroke-linejoin="round"/>
<path d="M140.549 279.425L145.735 276.93" stroke="white" stroke-width="0.7312" stroke-miterlimit="10" stroke-linejoin="round"/>
<path d="M131.923 272.065L134.89 267.749" stroke="white" stroke-width="0.7312" stroke-miterlimit="10" stroke-linejoin="round"/>
<path d="M650.931 602.285H521.852C515.569 602.285 510.482 597.195 510.482 590.908V427.694H657.538V595.673C657.538 599.341 654.571 602.285 650.931 602.285Z" fill="#FF8800"/>
<path d="M657.538 482.232H510.482V488.818H657.538V482.232Z" stroke="#D7DEFA" stroke-width="0.25" stroke-miterlimit="10"/>
<path d="M657.538 524.171H510.482V530.757H657.538V524.171Z" stroke="#D7DEFA" stroke-width="0.25" stroke-miterlimit="10"/>
<path opacity="0.46" d="M556.559 498.823L542.447 490.64L528.31 498.823V440.119H556.559V498.823Z" fill="url(#paint13_linear)"/>
<path d="M657.538 440.119H521.303C515.319 440.119 510.482 435.279 510.482 429.291C510.482 423.303 515.319 418.463 521.303 418.463H657.538V440.119Z" fill="#BD6400"/>
<path d="M653.474 440.119H523.497C518.486 440.119 514.396 436.052 514.396 431.012C514.396 425.998 518.461 421.906 523.497 421.906H653.474V440.119Z" fill="white"/>
<g opacity="0.38">
<path opacity="0.38" d="M515.095 434.53C515.17 434.705 515.269 434.88 515.369 435.029H653.474V434.53H515.095Z" fill="#FF2B4F"/>
<path opacity="0.38" d="M653.474 437.05H516.74C516.89 437.225 517.039 437.399 517.214 437.549H653.499V437.05H653.474Z" fill="#FF2B4F"/>
<path opacity="0.38" d="M514.497 432.01C514.522 432.185 514.521 432.36 514.546 432.509H653.474V432.01H514.497Z" fill="#FF2B4F"/>
<path opacity="0.38" d="M514.546 429.491C514.521 429.665 514.522 429.84 514.497 429.99H653.474V429.491H514.546Z" fill="#FF2B4F"/>
<path opacity="0.38" d="M517.19 424.476C517.015 424.626 516.89 424.825 516.716 424.975H653.449V424.476H517.19Z" fill="#FF2B4F"/>
<path opacity="0.38" d="M515.369 426.996C515.294 427.17 515.17 427.32 515.095 427.495H653.474V426.996H515.369Z" fill="#FF2B4F"/>
</g>
<path d="M553.941 495.43L539.804 487.247L525.667 495.43V440.119H553.941V495.43Z" fill="#FF2B4F"/>
<path d="M520.855 440.119H657.539" stroke="#BD6400" stroke-width="0.3077" stroke-miterlimit="10"/>
<path d="M78.6396 170.574C78.6396 157.201 113.471 157.6 123.195 152.935C132.919 148.27 141.82 127.188 160.869 127.188C179.918 127.188 183.234 142.606 191.712 144.627C200.189 146.648 217.592 141.783 224.898 152.935C232.203 164.087 259.331 160.844 259.331 170.574C259.331 180.304 205.849 185.992 173.835 185.992C141.845 185.992 78.6396 185.593 78.6396 170.574Z" fill="white"/>
<path d="M415.711 122.972L421.272 97.1748L456.502 138.964L415.711 122.972Z" fill="white"/>
<path d="M415.712 122.972L402.597 133.326L411.747 136.769L456.502 138.964L415.712 122.972Z" fill="#859CFA"/>
<path d="M414.365 127.013L403.195 150.939L456.502 138.964L414.365 127.013Z" fill="white"/>
<path d="M272.695 616.106H301.368" stroke="#061C73" stroke-width="0.5" stroke-miterlimit="10"/>
<path d="M129.029 616.106H157.702" stroke="#061C73" stroke-width="0.5" stroke-miterlimit="10"/>
<path d="M498.415 602.285H679.754" stroke="#061C73" stroke-width="0.5" stroke-miterlimit="10"/>
<path opacity="0.46" d="M690.724 561.818L638.988 509.95C652.053 494.881 652.252 472.103 638.614 456.834C623.829 440.268 598.422 438.821 581.841 453.616C565.285 468.41 563.839 493.833 578.625 510.424C592.238 525.692 614.878 528.087 631.309 516.786L676.961 574.093L690.724 561.818ZM583.661 505.659C571.344 491.837 572.541 470.656 586.354 458.306C600.167 445.981 621.335 447.179 633.677 461.001C645.994 474.822 644.797 496.003 630.984 508.353C617.171 520.678 595.978 519.48 583.661 505.659Z" fill="url(#paint14_linear)"/>
<path d="M696.111 554.882L683.07 567.905L629.589 508.079L636.296 501.368L696.111 554.882Z" fill="#0D3CFA"/>
<path opacity="0.57" d="M609.717 515.015C628.224 515.015 643.227 500.002 643.227 481.484C643.227 462.965 628.224 447.953 609.717 447.953C591.21 447.953 576.207 462.965 576.207 481.484C576.207 500.002 591.21 515.015 609.717 515.015Z" fill="white"/>
<path d="M638.14 453.017C622.432 437.299 596.976 437.299 581.293 453.017C565.585 468.735 565.585 494.207 581.293 509.9C597.001 525.618 622.457 525.618 638.14 509.9C653.848 494.207 653.848 468.735 638.14 453.017ZM633.403 505.185C620.313 518.283 599.095 518.283 586.005 505.185C572.915 492.087 572.915 470.855 586.005 457.757C599.095 444.659 620.313 444.659 633.403 457.757C646.493 470.855 646.493 492.087 633.403 505.185Z" fill="#061C73"/>
<path d="M587.626 466.889C587.202 466.889 586.778 466.764 586.429 466.489C585.532 465.816 585.357 464.568 586.03 463.67C586.853 462.573 587.776 461.5 588.773 460.527C589.546 459.753 590.842 459.728 591.615 460.527C592.388 461.3 592.388 462.597 591.615 463.371C590.768 464.219 589.97 465.142 589.247 466.09C588.848 466.589 588.249 466.889 587.626 466.889Z" fill="white"/>
<path d="M595.829 459.579C595.131 459.579 594.457 459.229 594.083 458.581C593.535 457.633 593.859 456.385 594.806 455.836C601.738 451.795 610.14 450.747 617.87 452.967C618.942 453.267 619.565 454.389 619.241 455.462C618.942 456.535 617.82 457.134 616.748 456.834C610.066 454.913 602.785 455.836 596.801 459.329C596.502 459.504 596.153 459.579 595.829 459.579Z" fill="white"/>
<path d="M678.832 563.165L691.248 550.541" stroke="white" stroke-width="0.2016" stroke-miterlimit="10"/>
</g>
<defs>
<linearGradient id="paint0_linear" x1="703.128" y1="549.79" x2="731.208" y2="468.717" gradientUnits="userSpaceOnUse">
<stop offset="0.1184" stop-color="#19916E"/>
<stop offset="1" stop-color="#0AAB94"/>
</linearGradient>
<linearGradient id="paint1_linear" x1="124.52" y1="535.57" x2="78.7564" y2="362.606" gradientUnits="userSpaceOnUse">
<stop offset="0.1184" stop-color="#19916E"/>
<stop offset="1" stop-color="#0AAB94"/>
</linearGradient>
<linearGradient id="paint2_linear" x1="336.674" y1="254.328" x2="336.674" y2="389.937" gradientUnits="userSpaceOnUse">
<stop stop-color="#C5C5C5"/>
<stop offset="1" stop-color="#5B5B5A"/>
</linearGradient>
<linearGradient id="paint3_linear" x1="436.893" y1="426.275" x2="436.893" y2="399.113" gradientUnits="userSpaceOnUse">
<stop stop-color="#C5C5C5"/>
<stop offset="1" stop-color="#5B5B5A"/>
</linearGradient>
<linearGradient id="paint4_linear" x1="436.054" y1="318.463" x2="437.38" y2="330.236" gradientUnits="userSpaceOnUse">
<stop offset="0.0443" stop-color="#FF5773"/>
<stop offset="1" stop-color="#FF5773" stop-opacity="0"/>
</linearGradient>
<linearGradient id="paint5_linear" x1="452.296" y1="418.791" x2="452.296" y2="390.093" gradientUnits="userSpaceOnUse">
<stop stop-color="#D7DEFA"/>
<stop offset="1" stop-color="white"/>
</linearGradient>
<linearGradient id="paint6_linear" x1="492.726" y1="272.912" x2="492.726" y2="326.26" gradientUnits="userSpaceOnUse">
<stop stop-color="#C5C5C5"/>
<stop offset="1" stop-color="#5B5B5A"/>
</linearGradient>
<linearGradient id="paint7_linear" x1="204.963" y1="440.82" x2="227.386" y2="440.82" gradientUnits="userSpaceOnUse">
<stop stop-color="#C5C5C5"/>
<stop offset="1" stop-color="#5B5B5A"/>
</linearGradient>
<linearGradient id="paint8_linear" x1="196.756" y1="385.936" x2="192.385" y2="396.647" gradientUnits="userSpaceOnUse">
<stop offset="0.0443" stop-color="#FF5773"/>
<stop offset="1" stop-color="#FF5773" stop-opacity="0"/>
</linearGradient>
<linearGradient id="paint9_linear" x1="188.278" y1="382.48" x2="183.91" y2="393.185" gradientUnits="userSpaceOnUse">
<stop offset="0.0443" stop-color="#FF5773"/>
<stop offset="1" stop-color="#FF5773" stop-opacity="0"/>
</linearGradient>
<linearGradient id="paint10_linear" x1="149.772" y1="437.628" x2="210.027" y2="437.628" gradientUnits="userSpaceOnUse">
<stop stop-color="#C5C5C5"/>
<stop offset="1" stop-color="#5B5B5A"/>
</linearGradient>
<linearGradient id="paint11_linear" x1="186.804" y1="493.514" x2="256.101" y2="493.514" gradientUnits="userSpaceOnUse">
<stop stop-color="#C5C5C5"/>
<stop offset="1" stop-color="#5B5B5A"/>
</linearGradient>
<linearGradient id="paint12_linear" x1="59.8217" y1="311.599" x2="174.448" y2="311.599" gradientUnits="userSpaceOnUse">
<stop stop-color="#C5C5C5"/>
<stop offset="1" stop-color="#5B5B5A"/>
</linearGradient>
<linearGradient id="paint13_linear" x1="542.437" y1="499.044" x2="542.437" y2="432.567" gradientUnits="userSpaceOnUse">
<stop stop-color="#C5C5C5"/>
<stop offset="1" stop-color="#5B5B5A"/>
</linearGradient>
<linearGradient id="paint14_linear" x1="614.507" y1="549.666" x2="640.226" y2="495.984" gradientUnits="userSpaceOnUse">
<stop stop-color="#C5C5C5"/>
<stop offset="1" stop-color="#5B5B5A"/>
</linearGradient>
<clipPath id="clip0">
<rect width="1101" height="692" fill="white"/>
</clipPath>
</defs>
</svg>
